<svg width="64" height="64" viewBox="0 0 64 64" version="1.1" xmlns="http://www.w3.org/2000/svg" xmlns:xlink="http://www.w3.org/1999/xlink">
<title>basic_target</title>
<desc>Created using Figma</desc>
<g id="Canvas" transform="translate(1468 419)">
<g id="basic_target">
<g id="Vector">
<use xlink:href="#path0_stroke" transform="translate(-1467 -418)"/>
</g>
<g id="Vector">
<use xlink:href="#path1_stroke" transform="translate(-1459 -409.999)"/>
</g>
<g id="Vector">
<use xlink:href="#path2_stroke" transform="translate(-1451 -402)"/>
</g>
<g id="Vector">
<use xlink:href="#path3_stroke" transform="translate(-1443 -393.999)"/>
</g>
</g>
</g>
<defs>
<path id="path0_stroke" d="M 52.9202 9.081L 52.2131 9.78808L 52.2132 9.78817L 52.9202 9.081ZM 52.9202 52.919L 52.2132 52.2119L 52.2131 52.212L 52.9202 52.919ZM 9.08025 52.919L 9.78741 52.212L 9.7873 52.2118L 9.08025 52.919ZM 9.08025 9.081L 9.78733 9.78814L 9.78741 9.78805L 9.08025 9.081ZM 52.2132 9.78817C 63.9296 21.5026 63.9296 40.4964 52.2132 52.2119L 53.6273 53.6261C 66.1249 41.1296 66.1249 20.8694 53.6273 8.37384L 52.2132 9.78817ZM 52.2131 52.212C 40.4976 63.9293 21.5029 63.9293 9.78741 52.212L 8.37309 53.626C 20.8696 66.1246 41.1309 66.1246 53.6274 53.626L 52.2131 52.212ZM 9.7873 52.2118C -1.92908 40.4974 -1.92913 21.5036 9.78733 9.78814L 8.37317 8.37386C -4.12438 20.8704 -4.12442 41.1306 8.3732 53.6262L 9.7873 52.2118ZM 9.78741 9.78805C 21.5029 -1.92933 40.4966 -1.92937 52.2131 9.78808L 53.6274 8.37392C 41.1299 -4.12462 20.8696 -4.12467 8.37309 8.37395L 9.78741 9.78805Z"/>
<path id="path1_stroke" d="M 44.998 22.999C 44.998 35.1487 35.1487 44.998 22.999 44.998L 22.999 46.998C 36.2533 46.998 46.998 36.2533 46.998 22.999L 44.998 22.999ZM 22.999 44.998C 10.8493 44.998 1 35.1487 1 22.999L -1 22.999C -1 36.2533 9.74472 46.998 22.999 46.998L 22.999 44.998ZM 1 22.999C 1 10.8493 10.8493 1 22.999 1L 22.999 -1C 9.74472 -1 -1 9.74472 -1 22.999L 1 22.999ZM 22.999 1C 35.1487 1 44.998 10.8493 44.998 22.999L 46.998 22.999C 46.998 9.74472 36.2533 -1 22.999 -1L 22.999 1Z"/>
<path id="path2_stroke" d="M 29 15C 29 22.732 22.732 29 15 29L 15 31C 23.8366 31 31 23.8366 31 15L 29 15ZM 15 29C 7.26801 29 1 22.732 1 15L -1 15C -1 23.8366 6.16344 31 15 31L 15 29ZM 1 15C 1 7.26801 7.26801 1 15 1L 15 -1C 6.16344 -1 -1 6.16344 -1 15L 1 15ZM 15 1C 22.732 1 29 7.26801 29 15L 31 15C 31 6.16344 23.8366 -1 15 -1L 15 1Z"/>
<path id="path3_stroke" d="M 12.998 6.999C 12.998 10.3122 10.3122 12.998 6.999 12.998L 6.999 14.998C 11.4167 14.998 14.998 11.4167 14.998 6.999L 12.998 6.999ZM 6.999 12.998C 3.68584 12.998 0.999999 10.3122 0.999999 6.999L -1 6.999C -1 11.4167 2.58127 14.998 6.999 14.998L 6.999 12.998ZM 0.999999 6.999C 0.999999 3.68584 3.68584 0.999999 6.999 0.999999L 6.999 -1C 2.58127 -1 -1 2.58127 -1 6.999L 0.999999 6.999ZM 6.999 0.999999C 10.3122 0.999999 12.998 3.68584 12.998 6.999L 14.998 6.999C 14.998 2.58127 11.4167 -1 6.999 -1L 6.999 0.999999Z"/>
</defs>
</svg>
