<svg width="200" height="200" viewBox="0 0 200 200" version="1.1" xmlns="http://www.w3.org/2000/svg" xmlns:xlink="http://www.w3.org/1999/xlink">
<title>box-codepen</title>
<desc>Created using Figma</desc>
<g id="Canvas" transform="translate(-1226 468)">
<clipPath id="clip-0" clip-rule="evenodd">
<path d="M 1226 -468L 1426 -468L 1426 -268L 1226 -268L 1226 -468Z" fill="#FFFFFF"/>
</clipPath>
<g id="box-codepen" clip-path="url(#clip-0)">
<g id="Ellipse">
<use xlink:href="#path0_fill" transform="translate(1226 -468)" fill="#334455"/>
<mask id="mask0_outline_ins">
<use xlink:href="#path0_fill" fill="white" transform="translate(1226 -468)"/>
</mask>
<g mask="url(#mask0_outline_ins)">
<use xlink:href="#path1_stroke_2x" transform="translate(1226 -468)"/>
</g>
</g>
<g id="codepen-icon">
<g id="Vector">
<use xlink:href="#path2_fill" transform="translate(1271 -422)" fill="#FFFFFF"/>
</g>
</g>
</g>
</g>
<defs>
<path id="path0_fill" d="M 200 100C 200 155.228 155.228 200 100 200C 44.7715 200 0 155.228 0 100C 0 44.7715 44.7715 0 100 0C 155.228 0 200 44.7715 200 100Z"/>
<path id="path1_stroke_2x" d="M 193 100C 193 151.362 151.362 193 100 193L 100 207C 159.094 207 207 159.094 207 100L 193 100ZM 100 193C 48.6375 193 7 151.362 7 100L -7 100C -7 159.094 40.9055 207 100 207L 100 193ZM 7 100C 7 48.6375 48.6375 7 100 7L 100 -7C 40.9055 -7 -7 40.9055 -7 100L 7 100ZM 100 7C 151.362 7 193 48.6375 193 100L 207 100C 207 40.9055 159.094 -7 100 -7L 100 7Z"/>
<path id="path2_fill" d="M 108.918 37.08C 108.893 36.948 108.871 36.816 108.836 36.6865C 108.814 36.6086 108.787 36.5354 108.762 36.4587C 108.727 36.3437 108.686 36.2301 108.642 36.1181C 108.61 36.0406 108.573 35.9657 108.538 35.8907C 108.489 35.7849 108.435 35.6812 108.378 35.5799C 108.337 35.505 108.289 35.4343 108.244 35.3628C 108.135 35.1932 108.016 35.0307 107.886 34.8765C 107.812 34.7892 107.734 34.7045 107.654 34.6228C 107.592 34.561 107.531 34.4993 107.466 34.4392C 107.381 34.3615 107.292 34.2876 107.2 34.2178C 107.13 34.1633 107.061 34.1071 106.987 34.0573C 106.961 34.0386 106.938 34.0164 106.91 33.9986L 57.0968 0.787222C 56.3278 0.273935 55.4239 -1.52612e-11 54.4994 -1.52611e-11C 53.5748 -1.52613e-11 52.6709 0.273935 51.9019 0.787222L 2.08548 33.9977C 2.0578 34.0152 2.03609 34.0373 2.00798 34.0565C 1.93475 34.1076 1.86577 34.1621 1.79509 34.2166C 1.70463 34.2876 1.61604 34.361 1.52941 34.4367C 1.46508 34.4955 1.40288 34.5565 1.34291 34.6198C 1.26074 34.7024 1.18452 34.7858 1.10959 34.874C 1.05423 34.94 1.00101 35.006 0.949492 35.0796C 0.879238 35.172 0.81452 35.2661 0.751504 35.3645C 0.705945 35.4364 0.660387 35.5067 0.617809 35.5816C 0.560674 35.6821 0.50783 35.7849 0.459418 35.8899C 0.424078 35.9648 0.386184 36.041 0.355102 36.1173C 0.309543 36.2288 0.269945 36.3434 0.233328 36.4579C 0.208633 36.5345 0.182234 36.609 0.161371 36.678C 0.127309 36.807 0.102613 36.9378 0.0791953 37.0715C 0.0664219 37.1392 0.0498164 37.2051 0.040875 37.2741C 0.0144766 37.4764 0 37.679 0 37.886L 0 71.1041C 0 71.3093 0.0144766 71.515 0.0438555 71.716C 0.0545 71.7896 0.0736602 71.848 0.0881367 71.9186C 0.111555 72.0506 0.131992 72.1826 0.176273 72.3151C 0.196711 72.3883 0.220129 72.4619 0.249508 72.5424C 0.286125 72.6599 0.322742 72.7775 0.367023 72.8848C 0.39768 72.958 0.440258 73.0312 0.469637 73.1049C 0.518176 73.2075 0.572676 73.3101 0.631434 73.4174C 0.672309 73.4907 0.719145 73.5643 0.763426 73.6316C 0.826441 73.7346 0.895418 73.8228 0.968652 73.9105C 1.02017 73.9841 1.07169 74.0425 1.13045 74.1132C 1.20496 74.2013 1.27692 74.2894 1.36505 74.3673C 1.42509 74.4257 1.48257 74.4993 1.5558 74.5432C 1.64096 74.6169 1.73208 74.6901 1.81979 74.7663C 1.89047 74.8251 1.96711 74.8694 2.02544 74.9264C 2.05354 74.9409 2.06972 74.9703 2.0991 74.9835L 51.9019 108.212C 52.669 108.73 53.5744 109.004 54.5 109C 55.4246 108.998 56.3282 108.724 57.0981 108.212L 106.915 75.0009C 106.942 74.9839 106.966 74.963 106.992 74.9439C 107.065 74.8928 107.134 74.8383 107.205 74.7842C 107.296 74.7118 107.385 74.6373 107.471 74.5611C 107.535 74.5036 107.597 74.4406 107.658 74.3788C 107.8 74.2362 107.931 74.0837 108.05 73.9224C 108.121 73.83 108.185 73.7346 108.248 73.6375C 108.294 73.5673 108.34 73.4953 108.382 73.4234C 108.441 73.3203 108.492 73.2164 108.542 73.1109C 108.577 73.0359 108.614 72.961 108.646 72.8848C 108.692 72.7715 108.73 72.657 108.767 72.5424C 108.791 72.4662 108.818 72.3913 108.84 72.3151C 108.874 72.186 108.897 72.0536 108.922 71.9216C 108.934 71.8539 108.952 71.7879 108.959 71.719C 108.986 71.5167 109 71.314 109 71.1071L 109 37.8945C 109 37.6876 108.984 37.4849 108.959 37.2822C 108.947 37.2103 108.925 37.1519 108.911 37.08L 108.918 37.08ZM 54.4987 65.58L 37.9337 54.5006L 54.4987 43.4195L 71.0646 54.5006L 54.4987 65.58L 54.4987 65.58ZM 49.816 35.2831L 29.5096 48.8657L 13.1183 37.9L 49.8164 13.4352L 49.8164 35.2831L 49.816 35.2831ZM 21.0855 54.4989L 9.36932 62.3359L 9.36932 46.6623L 21.0855 54.4989ZM 29.5096 60.1384L 49.8164 73.7193L 49.8164 95.5672L 13.1183 71.0994L 29.51 60.1354L 29.51 60.1384L 29.5096 60.1384ZM 59.1823 73.7167L 79.4887 60.1359L 95.8817 71.0994L 59.1823 95.5643L 59.1823 73.7163L 59.1823 73.7167ZM 87.9128 54.5019L 99.6307 46.6636L 99.6307 62.3389L 87.9132 54.4989L 87.9132 54.5019L 87.9128 54.5019ZM 79.4887 48.8653L 59.1823 35.2844L 59.1823 13.4352L 95.8817 37.9005L 79.4891 48.8653L 79.4887 48.8653Z"/>
</defs>
</svg>
