<?xml version="1.0" encoding="utf-8"?>
<!-- Generator: Adobe Illustrator 21.1.0, SVG Export Plug-In . SVG Version: 6.00 Build 0)  -->
<svg version="1.1" id="Layer_1" xmlns="http://www.w3.org/2000/svg" xmlns:xlink="http://www.w3.org/1999/xlink" x="0px" y="0px"
	 viewBox="0 0 576 720" style="enable-background:new 0 0 576 720;" xml:space="preserve">
<style type="text/css">
	.st0{fill:#EB5757;}
	.st1{clip-path:url(#SVGID_2_);}
	.st2{fill:#ED8787;}
	.st3{fill:#C74B4B;}
	.st4{clip-path:url(#SVGID_4_);}
	.st5{fill:#FFFFFF;}
	.st6{fill:#0E0D0D;}
</style>
<g>
	<path id="path0_fill" class="st0" d="M0,0h577v720H0V0z"/>
	<g>
		<defs>
			<rect id="SVGID_1_" x="0.5" y="375.1" width="576.2" height="229.9"/>
		</defs>
		<clipPath id="SVGID_2_">
			<use xlink:href="#SVGID_1_"  style="overflow:visible;"/>
		</clipPath>
		<g id="Canvas" class="st1">
			<g>
				<rect x="-2.3" y="370.7" class="st2" width="585.7" height="377"/>
				<g id="Group">
					<g id="Group-2">
						<g id="Vector">
							<path id="path19_fill" class="st3" d="M127.1,566.6c-38.9,0-70.4-31.9-70.4-71.3c0-39.4,31.5-71.4,70.3-71.4
								s70.4,31.9,70.4,71.3c0,0,0,0,0,0C197.4,534.7,166,566.6,127.1,566.6z M127.1,426.3c-37.6,0-68.1,30.9-68.1,69
								c0,38.1,30.4,69,68,69.1c37.6,0,68.1-30.9,68.1-69c0,0,0,0,0,0C195.1,457.3,164.7,426.4,127.1,426.3L127.1,426.3z"/>
						</g>
					</g>
					<g id="Group-3">
						<g id="Vector-2">
							<path id="path20_fill" class="st3" d="M127.1,582c-47.2,0-85.4-38.8-85.4-86.6c0-47.8,38.2-86.6,85.4-86.6
								c47.2,0,85.4,38.8,85.4,86.6c0,0,0,0,0,0C212.5,543.2,174.3,581.9,127.1,582z M127.1,413.3c-44.7,0-80.9,36.7-80.9,82.1
								s36.2,82.1,80.9,82.1s80.9-36.7,80.9-82.1C208.1,450.1,171.8,413.3,127.1,413.3L127.1,413.3z"/>
						</g>
					</g>
					<g id="Group-4">
						<g id="Vector-3">
							<path id="path21_fill" class="st3" d="M357,582c-47.2,0-85.4-38.8-85.4-86.6c0-47.8,38.2-86.6,85.4-86.6
								c47.2,0,85.4,38.8,85.4,86.6c0,0,0,0,0,0C442.3,543.2,404.1,581.9,357,582z M357,413.3c-44.7,0-80.9,36.7-80.9,82.1
								s36.2,82.1,80.9,82.1s80.9-36.7,80.9-82.1C437.9,450.1,401.7,413.3,357,413.3L357,413.3z"/>
						</g>
					</g>
					<g id="Group-5">
						<g id="Vector-4">
							<path id="path22_fill" class="st3" d="M357,566.6c-38.9,0-70.4-31.9-70.4-71.3c0-39.4,31.4-71.4,70.3-71.4
								c38.9,0,70.4,31.9,70.4,71.3c0,0,0,0,0,0.1C427.2,534.6,395.8,566.6,357,566.6z M357,426.3c-37.6,0-68.1,30.9-68.1,69
								c0,38.1,30.4,69,68,69s68.1-30.9,68.1-69c0,0,0,0,0,0C425,457.3,394.5,426.4,357,426.3L357,426.3z"/>
						</g>
					</g>
					<g id="Group-6">
						<g id="Vector-5">
							<path id="path23_fill" class="st3" d="M233.2,497.8H126.5c-1.3,0-2.3-1-2.3-2.3s1-2.3,2.3-2.3h106.7c1.3,0,2.3,1,2.3,2.3
								c0,1.3-0.9,2.3-2.2,2.3C233.3,497.8,233.3,497.8,233.2,497.8z"/>
						</g>
					</g>
					<g id="Group-7">
						<g id="Vector-6">
							<path id="path24_fill" class="st3" d="M230.2,515.4h-0.1l-103.7-12.7c-0.6-0.1-1.1-0.6-1-1.3c0.1-0.6,0.6-1,1.3-1.1
								l103.7,12.7c0.6,0.1,1.1,0.6,1,1.3C231.3,515,230.8,515.4,230.2,515.4z"/>
						</g>
					</g>
					<g id="Group-8">
						<g id="Vector-7">
							<path id="path25_fill" class="st3" d="M126.5,489.2c-0.6,0-1.1-0.5-1.1-1.1c-0.1-0.6,0.3-1.2,0.9-1.3c0,0,0,0,0.1,0
								L230,473.5c0.6,0,1.1,0.4,1.2,1.1c0,0.6-0.3,1.1-0.9,1.2l-103.7,13.5C126.6,489.2,126.6,489.2,126.5,489.2z"/>
						</g>
					</g>
					<g id="Group-9">
						<g id="Vector-8">
							<path id="path26_fill" class="st3" d="M311,386.5H187.9c-1.3,0-2.3-1-2.3-2.3s1-2.3,2.3-2.3H311c1.3,0,2.3,1,2.3,2.3
								S312.2,386.5,311,386.5z"/>
						</g>
					</g>
					<g id="Group-10">
						<g id="Vector-9">
							<path id="path27_fill" class="st3" d="M126.6,497.5c-0.4,0-0.8-0.1-1.1-0.3c-1.1-0.7-1.4-2.1-0.8-3.2L187.8,382
								c0.6-1.1,2-1.6,3.1-1c1.1,0.6,1.6,2,1,3.1c0,0.1-0.1,0.1-0.1,0.2l-63.1,112.1C128.2,497.1,127.4,497.5,126.6,497.5z"/>
						</g>
					</g>
					<g id="Group-11">
						<g id="Vector-10">
							<path id="path28_fill" class="st3" d="M354.7,494.1c-0.7,0-1.4-0.4-1.9-1c-14.7-20.3-50.7-129-52.1-133.7
								c-0.5-1.2,0.1-2.6,1.3-3s2.5,0.1,3,1.3c0,0.1,0.1,0.1,0.1,0.2c0.4,1.2,37.2,112.7,51.5,132.3c0.7,1,0.5,2.4-0.5,3.1
								c0,0,0,0-0.1,0.1C355.7,493.9,355.2,494.1,354.7,494.1z"/>
						</g>
					</g>
					<g id="Group-12">
						<g id="Vector-11">
							<path id="path29_fill" class="st3" d="M232.4,497.2c-0.9,0-1.8-0.6-2.1-1.5l-53.1-133c-0.5-1.1,0-2.4,1.1-2.9
								c0,0,0.1,0,0.1,0c1.2-0.5,2.5,0.1,2.9,1.3l53,132.9c0.5,1.1,0,2.4-1.1,2.9c0,0-0.1,0-0.1,0
								C232.9,497.1,232.7,497.2,232.4,497.2z"/>
						</g>
					</g>
					<g id="Group-13">
						<g id="Vector-12">
							<path id="path30_fill" class="st3" d="M234,497.8c-0.5,0-1-0.2-1.5-0.5c-1-0.8-1.1-2.3-0.3-3.3l79.4-100.8
								c0.9-1,2.3-1,3.3-0.2c0.9,0.8,1,2.2,0.3,3.1L235.7,497C235.3,497.5,234.6,497.8,234,497.8z"/>
						</g>
					</g>
					<g id="Group-14">
						<g id="Vector-13">
							<path id="path31_fill" class="st3" d="M234.2,517.3c-12.6,0-22.9-10.4-22.9-23.2c0-12.8,10.2-23.2,22.9-23.2
								c12.6,0,22.9,10.4,22.9,23.2c0,0,0,0,0,0C257,506.9,246.8,517.3,234.2,517.3C234.2,517.3,234.2,517.3,234.2,517.3z
								 M234.2,475.5c-10.2,0-18.4,8.4-18.4,18.7c0,10.3,8.2,18.7,18.4,18.7c10.2,0,18.4-8.4,18.4-18.7l0,0
								C252.5,483.8,244.3,475.5,234.2,475.5L234.2,475.5z"/>
						</g>
					</g>
					<g id="Group-15">
						<g id="Vector-14">
							<path id="path32_fill" class="st3" d="M234.2,506.1c-6.5,0-11.8-5.4-11.8-12c0-6.6,5.3-12,11.8-12c6.5,0,11.8,5.4,11.8,12
								l0,0C246,500.7,240.7,506.1,234.2,506.1C234.2,506.1,234.2,506.1,234.2,506.1z M234.2,486.7c-4,0-7.3,3.3-7.3,7.4
								c0,4.1,3.3,7.4,7.3,7.4s7.3-3.3,7.3-7.4c0,0,0,0,0,0C241.5,490,238.2,486.7,234.2,486.7z"/>
						</g>
					</g>
					<g id="Group-16">
						<g id="Vector-15">
							<path id="path33_fill" class="st3" d="M126.3,502.3c4.5,0,8.1-3.7,8.1-8.3s-3.6-8.3-8.1-8.3s-8.1,3.7-8.1,8.3
								S121.8,502.3,126.3,502.3L126.3,502.3z"/>
						</g>
					</g>
					<g id="Group-17">
						<g id="Vector-16">
							<path id="path34_fill" class="st3" d="M357,499.3c2.8,0,5.1-2.3,5.1-5.2c0-2.9-2.3-5.2-5.1-5.2s-5.1,2.3-5.1,5.2
								C351.9,497,354.2,499.3,357,499.3L357,499.3z"/>
						</g>
					</g>
					<g id="Group-18">
						<g id="Vector-17">
							<path id="path35_fill" class="st3" d="M201.5,359.6c-5.9,3.7-36.1,2.2-46.4,2.2s3.7-12,14-12S208.7,355,201.5,359.6z"/>
						</g>
					</g>
					<g id="Group-19">
						<g id="Vector-18">
							<path id="path36_fill" class="st3" d="M319.4,377.6c-0.6,0-1.2-0.2-1.6-0.6c-0.9-0.8-0.9-2.3-0.1-3.2c0,0,0.1-0.1,0.1-0.1
								c2.8-2.9,0-9-3.1-14.9c-4.2-7.8-10.5-8.7-13.1-8.7c-1.3,0-2.3-1-2.3-2.3s1-2.3,2.3-2.3c3.3,0,11.7,1.1,17,11.1
								c3.1,5.9,7.8,14.8,2.4,20.4C320.7,377.3,320.1,377.6,319.4,377.6z"/>
						</g>
					</g>
					<g id="Group-20">
						<g id="Vector-19">
							<path id="path37_fill" class="st3" d="M315.4,360.5h-12.5c-1.3,0-2.3-1-2.3-2.3s1-2.3,2.3-2.3h12.5c1.3,0,2.3,1,2.3,2.3
								C317.6,359.5,316.6,360.5,315.4,360.5z"/>
						</g>
					</g>
				</g>
				<g id="Group-21">
					<g id="Vector-20">
						<path id="path38_fill" class="st3" d="M243.5,714.6c-0.9,0-1.7-0.5-2.1-1.3c-0.7-1.1-1.7-2.1-2.7-3c-0.5,0.5-1.4,1.3-1.9,1.8
							c-1.9,1.8-2.5,2.4-3.7,2.4c-0.9,0-1.8-0.6-2.2-1.5c-0.8-1.4-1.6-2.8-2.6-4.1c-1.2,1-2.3,2.1-3.2,3.3c-0.5,0.6-1.2,1-2,0.8
							c-0.7-0.1-1.4-0.5-1.8-1.2c-0.4-0.8-0.8-1.7-1.3-2.7c-0.4-0.9-0.8-1.8-1.4-2.6c-0.4,0.1-1.8,0.8-2.7,1.3
							c-0.7,0.4-1.4,0.8-2.1,1.1c-0.6,0.2-1.2,0.2-1.8,0c-0.6-0.2-1-0.7-1.3-1.3c-0.3-0.8-0.6-1.6-0.7-2.4c-0.2-0.9-0.5-1.7-0.8-2.5
							h-0.1c-1,0.1-1.9,0.3-2.8,0.7c-0.8,0.3-1.7,0.5-2.4,0.7c-0.6,0.1-1.3,0-1.8-0.4c-0.5-0.4-0.8-1-0.9-1.6
							c-0.1-1.7-0.4-3.4-0.8-5.1c-1.6,0.3-3.2,0.8-4.7,1.4c-0.7,0.2-1.5,0.1-2.1-0.3c-0.6-0.4-1-1.2-0.9-1.9c0-0.9,0.1-1.8,0.2-2.7
							c0.1-1,0.2-2,0.1-3c-0.9-0.2-1.7-0.3-2.6-0.2c-0.9,0-1.7,0-2.6-0.1c-1.2-0.1-2.1-1.3-2-2.5c0,0,0,0,0,0c0.1-0.7,0.2-1.4,0.4-2
							c0.3-1,0.4-2,0.4-3c-0.9-0.3-1.8-0.5-2.7-0.6c-0.8-0.1-1.6-0.3-2.4-0.5c-1.2-0.4-1.9-1.6-1.6-2.9c0.2-0.6,0.4-1.4,0.7-2.1
							c0.4-0.8,0.6-1.7,0.7-2.7c-0.8-0.4-1.7-0.8-2.6-1.1c-0.8-0.3-1.6-0.5-2.3-0.8c-1.2-0.5-1.7-1.9-1.1-3.1c0.3-0.7,0.7-1.3,1-1.9
							c0.5-0.8,0.9-1.6,1.1-2.4c-0.8-0.5-1.6-1-2.4-1.5c-0.7-0.4-1.5-0.8-2.1-1.3c-1-0.7-1.3-2.1-0.6-3.2c0.4-0.6,0.8-1.2,1.3-1.7
							c0.7-0.8,1.3-1.8,1.7-2.9c0.1-0.7-2-1.7-2.7-2.1c-1.1-0.6-2.6-1.3-2.6-3c0-1.1,0.7-2,1.8-2.2c3-0.7,3-2,2.9-2.8
							c-0.1-0.7-1.8-2-2.5-2.5c-1.1-0.8-2.2-1.6-2.2-3.1c0-0.9,0.5-1.7,1.3-2c0.4-0.2,0.9-0.5,1.5-0.7c0.8-0.4,1.6-0.8,2.3-1.3
							c-0.4-0.9-0.8-1.7-1.4-2.5c-0.5-0.8-0.9-1.6-1.4-2.4c-0.5-1.1-0.1-2.3,0.9-2.9c0.7-0.4,1.5-0.8,2.3-1.1
							c0.8-0.3,1.6-0.7,2.3-1.2c-0.3-1-0.7-2-1.3-2.9c-0.4-0.7-0.7-1.5-1-2.1c-0.4-1.2,0.1-2.5,1.3-3c0.9-0.4,1.9-0.7,2.9-0.8
							c0.7-0.1,1.3-0.3,2-0.5c-0.1-0.9-0.3-1.8-0.6-2.7c-0.3-0.8-0.5-1.5-0.6-2.3c-0.2-1.2,0.5-2.4,1.7-2.7c0.7-0.2,1.5-0.4,2.2-0.4
							c1-0.1,1.9-0.3,2.8-0.6c0-0.9-0.1-1.8-0.3-2.8c-0.1-0.8-0.3-1.7-0.3-2.3c0-1.2,0.8-2.2,2-2.4c0.9-0.1,1.8-0.1,2.7-0.1h1
							c0.5,0,1,0,1.5-0.1c0.1-0.8,0.1-1.7,0-2.5v-2c0.1-1.2,1.1-2.1,2.3-2.1c0.8,0,1.6,0.1,2.4,0.2c0.7,0.1,1.3,0.1,2,0.1
							c0.3,0,0.6,0,0.8-0.1c0.4-0.8,0.6-1.7,0.6-2.7c0.1-0.7,0.2-1.4,0.4-2.1c0.3-1.2,1.4-1.9,2.6-1.7c0.8,0.1,1.6,0.3,2.3,0.6
							c0.8,0.3,1.7,0.5,2.5,0.5c0.5-0.3,0.9-1.7,1.3-2.7c0.2-0.8,0.5-1.6,0.8-2.3c0.3-0.6,0.7-1.1,1.4-1.3c0.6-0.2,1.3-0.1,1.9,0.2
							c1.2,0.8,2.5,1.6,3.9,2.2c1-1.5,1.8-3.1,2.5-4.8c0.2-0.4,0.5-0.8,0.9-1.1c0.3-0.2,0.7-0.3,1.1-0.3c1,0,1.8,0.5,2.9,1.4
							c0.9,0.7,1.8,1.3,2.8,1.7c0.8-0.7,1.5-1.5,2.1-2.4c1-1.3,1.7-2.2,2.9-2.2c0.7,0,1.3,0.3,1.8,0.8c0.4,0.5,0.8,1.2,1.4,1.8
							c0.5,0.8,1,1.4,1.7,2c0.4-0.1,1.5-1,2.9-2.8c0.8-1.1,1.5-1.8,2.7-1.8c0.9,0,1.7,0.5,2.1,1.3c0.3,0.6,0.6,1.3,0.7,2
							c0.2,0.7,0.5,1.4,0.9,2c0.2,0.1,0.3,0.2,0.5,0.2c0.5,0,1.6-1,2.3-1.7c0.7-0.8,1.5-1.5,2.4-2c1-0.5,2.3-0.2,2.9,0.7
							c0.6,1.1,1.2,2.3,1.6,3.5c0.1,0.4,0.3,0.9,0.5,1.3c0.8-0.3,1.6-0.6,2.3-1.1c0.6-0.4,1.2-0.7,1.9-1c1.1-0.5,2.4,0,2.9,1.2
							c0.3,0.7,0.6,1.5,0.8,2.2c0.3,0.9,0.6,1.7,1,2.5c0.9-0.1,1.8-0.4,2.6-0.7c0.7-0.2,1.5-0.5,2-0.6c1.2-0.3,2.4,0.4,2.7,1.6
							c0.2,0.7,0.3,1.6,0.5,2.3c0.1,0.9,0.3,1.8,0.7,2.7h0.3c0.6,0,1.5-0.2,2.3-0.3c0.7-0.1,1.4-0.3,2.1-0.3c1.2-0.1,2.3,0.8,2.4,2
							c0.1,0.8,0.1,1.6,0.1,2.4c-0.1,0.9,0,1.9,0.2,2.8c0-0.1,0.3,0.1,1.5,0.1h1.3c0.7-0.1,1.5-0.1,2.2,0c1.2,0.1,2.2,1.2,2.1,2.4
							c0,0,0,0,0,0c-0.1,0.8-0.2,1.6-0.3,2.4c-0.2,0.9-0.2,1.8-0.2,2.7c0.9,0.3,1.9,0.6,2.8,0.6c0.7,0.1,1.5,0.2,2.1,0.3
							c1.2,0.3,2,1.4,1.7,2.6c0,0,0,0.1,0,0.1c-0.2,0.7-0.4,1.6-0.7,2.4c-0.3,0.8-0.5,1.6-0.6,2.4c0.8,0.5,1.8,0.9,2.7,1.1
							c0.7,0.2,1.5,0.4,2.1,0.6c1.1,0.5,1.7,1.8,1.3,3c-0.3,0.7-0.6,1.5-1,2.3c-0.4,0.8-0.7,1.6-1,2.4c0.8,0.6,1.6,1,2.5,1.4
							c0.6,0.3,1.4,0.6,1.8,0.8c1.1,0.6,1.4,2,0.8,3.1c-0.4,0.7-0.9,1.5-1.5,2.2c-0.5,0.7-1,1.5-1.4,2.2c0.7,0.7,1.5,1.3,2.4,1.8
							c0.6,0.4,1.3,0.8,1.7,1.2c0.9,0.8,1.1,2.2,0.4,3.2c-0.5,0.6-1.1,1.3-1.8,1.9c-0.7,0.7-1.3,1.4-1.9,2.2c0.6,0.7,1.2,1.4,2,2
							c0.5,0.5,1.1,1,1.5,1.4c0.9,0.9,0.8,2.4-0.1,3.3c-0.6,0.5-1.4,1.2-2.1,1.7c-0.8,0.5-1.6,1.2-2.2,2c0.5,0.8,1.1,1.6,1.8,2.2
							c0.5,0.5,0.9,1,1.3,1.5c0.3,0.5,0.5,1.2,0.4,1.8c-0.1,0.6-0.5,1.1-0.9,1.5c-0.7,0.4-1.6,0.8-2.3,1.3c-0.8,0.4-1.5,0.8-2.2,1.3
							c0.3,1,0.8,1.9,1.4,2.8l1.3,2.2c0.3,0.6,0.3,1.4-0.1,2c-0.3,0.6-1,1.1-1.7,1.2c-1.5,0.2-2.9,0.5-4.3,1
							c0.3,1.7,0.7,3.4,1.4,5.1c0.2,0.6,0.1,1.3-0.2,1.8c-0.3,0.5-0.8,0.9-1.4,1.2c-0.7,0.2-1.7,0.3-2.5,0.5c-1,0.1-1.9,0.3-2.8,0.6
							c0,1,0.2,1.9,0.4,2.9c0.2,0.8,0.3,1.6,0.4,2.2c0.1,0.6-0.1,1.3-0.5,1.7c-0.4,0.4-1,0.7-1.6,0.8c-0.5,0-1,0.1-1.6,0.1h-1.9
							c-0.9,0-1.5,0.1-1.7,0.1c-0.2,1-0.2,2-0.1,3c0.1,0.7,0.1,1.3,0,2c-0.1,1.2-1.1,2.1-2.3,2.1c-0.8,0-1.7-0.1-2.5-0.2
							c-0.7-0.1-1.4-0.2-2.1-0.2c-0.3,0-0.6,0-0.8,0.1c-0.3,0.9-0.4,1.9-0.4,2.9c0,0.7-0.1,1.5-0.3,2.2c-0.1,0.6-0.5,1.1-0.9,1.5
							c-0.5,0.3-1.2,0.4-1.8,0.3c-0.7-0.2-1.6-0.4-2.4-0.7c-0.9-0.4-1.8-0.6-2.7-0.7c-0.4,0.3-0.8,1.8-1.1,2.8
							c-0.2,0.8-0.5,1.6-0.8,2.4c-0.3,0.6-0.8,1.1-1.5,1.3c-0.6,0.2-1.3,0.1-1.9-0.3c-1.2-0.9-2.5-1.7-3.9-2.3c-1,1.6-1.9,3.3-2.6,5
							l-0.1,0.2c-0.3,0.7-1,1.2-1.8,1.4c-0.8,0.1-1.6-0.2-2.1-0.8c-1.1-1.1-2.3-2.2-3.6-3.1c-0.5,0.6-1.4,1.7-1.8,2.3
							C245.3,713.8,244.8,714.6,243.5,714.6z M228.7,704.2c0.3,0,0.6,0,0.8,0.1c1.6,0.4,3.1,2.5,4.2,4.3c2.1-2.1,3-3,4.2-3.2h0.5
							c1.8,0,3.7,1.6,5,3.1c2.1-2.9,3.1-4.1,4.5-4.3c1.6-0.3,3.8,1.3,5.4,2.8c1.7-3.4,2.8-5.1,5.3-5.1c1.4,0.1,2.8,0.6,4,1.5
							c0.6-1.9,1.4-3.9,3.1-4.9c1.6-0.8,3.8-0.4,5.9,0.2c0.2-1.8,0.5-3.9,2.1-5.2c1.1-0.8,2.4-1.2,3.8-1.2c0.7,0,1.5,0.1,2.2,0.1
							c-0.1-1.8,0-3.8,1.3-5.3c1.4-1.7,3.8-1.7,5.1-1.7h0.5c-0.4-1.9-0.6-4,0.4-5.6c1.1-1.8,3.4-2.2,5.5-2.5c-0.8-3-1.1-4.8-0.1-6.5
							c0.8-1.4,2.2-2,4.3-2.4c-0.9-1.6-1.8-3.4-1.4-5.3c0.4-1.9,2.3-3.2,4.3-4.1c-1.1-1.4-2.2-3-2.1-4.9c0.2-2.1,1.9-3.6,3.7-5
							c-1.4-1.2-2.7-2.7-2.8-4.7c-0.1-2,1.4-3.8,2.8-5.4c-1.5-1-3-2.2-3.6-4.1c-0.5-1.9,0.6-3.9,1.9-5.8c-1.6-0.7-3.3-1.7-4.1-3.5
							c-0.7-1.8,0.1-4,1-5.8c-1.7-0.5-3.7-1.3-4.7-3c-1-1.7-0.5-3.9,0.1-5.8c-1.8-0.2-3.8-0.6-5-2.1c-1.3-1.5-1.1-3.8-0.8-5.8
							c-1.7,0-3.8,0-5.2-1.4c-1.5-1.4-1.7-3.5-1.7-5.5c-2,0.4-4.1,0.4-5.4-0.5c-1.7-1.2-2.2-3.3-2.5-5.2c-1.8,0.6-3.9,1.1-5.4,0.3
							c-1.9-0.8-2.6-2.9-3.2-4.8c-1.7,0.8-3.6,1.7-5.3,1.2c-2.1-0.6-2.7-2.5-3.2-4.1c-1.2,1.4-2.9,2.3-4.8,2.4c-1,0-2-0.3-2.9-0.8
							c-1-0.6-1.7-1.6-2.2-2.7c-1.2,1.5-3,2.4-4.9,2.5c-0.5,0-0.9-0.1-1.4-0.2c-1.4-0.6-2.6-1.6-3.3-3c-1.4,1.7-2.6,3-4.2,3.2
							c-1.9,0.3-4-1-5.5-2c-1.7,3.5-2.9,5.2-5.4,5.2c-1.4-0.1-2.8-0.6-4-1.5c-0.6,1.8-1.4,3.7-3,4.7c-1.7,1-3.8,0.5-5.7-0.1
							c-0.3,1.8-0.7,3.8-2.3,5.1c-1.3,1-3.3,1.2-5.6,1c0,1.8-0.1,3.8-1.5,5.2c-1.4,1.4-3.6,1.5-5.4,1.5c0.3,2,0.5,4.2-0.7,5.8
							c-1.3,1.6-3.2,2-5,2.2c0.5,1.8,1,3.8,0.2,5.7c-0.8,1.9-2.9,2.4-4.8,2.9c0.9,1.8,1.8,3.8,1.3,5.8c-0.5,2-2.6,3-4.6,3.8
							c0.9,1.6,2.1,3.5,2.1,5.6c0,1.7-1.4,2.8-3.3,3.8c1.4,1.2,2.7,2.8,2.8,4.8c0.2,2.1-0.6,4.1-2.2,5.5c1.6,1.2,3,2.9,2.8,5.3
							c-0.3,1.7-1,3.3-2.1,4.7c1.8,1,3.7,2.1,4.3,4c0.6,1.9-0.3,3.8-1.3,5.4c1.9,0.6,3.8,1.5,4.7,3.3s0.3,3.8-0.3,5.6
							c2,0.3,4.2,0.8,5.3,2.5s0.8,3.7,0.4,5.5c2.2,0,4.4,0.2,5.7,1.8c1.1,1.5,1.1,3.4,1,5.3c6-1.7,7.1,1,7.8,5.9
							c2-0.6,4.2-1.1,5.9-0.3c1.9,0.8,2.5,3,3,5c1.8-1,3.9-1.8,5.7-1.3s2.9,2.4,3.8,4.3C225.4,705.2,227,704.4,228.7,704.2
							L228.7,704.2z M248.4,698c-1.3,0-2.5-0.5-3.3-1.5c-0.9-1.2-1.1-3-0.7-5.3c1.3-5.8,2.7-10.9,9.2-14.3c1.6-0.8,5.4-3.3,8-5
							c4.3-3,8.1-3.5,14.3-1.7c2.8,0.7,4.6,2.1,5.1,3.9c0.5,1.7,0,3.6-1.3,4.9c-7.5,9.5-18,16.2-29.7,18.9
							C249.5,698,248.9,698,248.4,698z M269.7,673.7c-2,0-4,0.7-5.6,1.9c-2.7,1.9-6.8,4.3-8.5,5.3c-4.8,2.5-5.7,5.9-6.9,11.2
							c0,0.4-0.1,0.8-0.2,1.2c0.2,0,0.4,0,0.5-0.1c10.7-2.5,20.3-8.6,27.2-17.3c0.3-0.3,0.4-0.5,0.4-0.6c-0.6-0.4-1.3-0.7-2-0.8
							C273,674,271.3,673.8,269.7,673.7L269.7,673.7z M228.1,697.6c-0.5,0-1.1-0.1-1.6-0.2c-11-2.3-21-8.1-28.6-16.5
							c-1.3-1.5-1.9-3.5-1.5-5.4c0.4-1.8,1.9-3.3,3.7-3.7c6.4-2.1,10.5-2.4,13-0.8c0.8,0.5,2.1,1.3,3.3,2.1c2.9,1.9,6.7,4.1,9.4,5.6
							c4,2.1,7.4,8.9,7.6,13.3c0.2,2.9-1.9,5.5-4.7,5.7C228.5,697.6,228.3,697.6,228.1,697.6L228.1,697.6z M209.2,674.6
							c-2.6,0.2-5.1,0.7-7.5,1.6c-0.2,0.1-0.6,0.2-0.6,0.5c0,0.4,0.1,0.9,0.4,1.2c6.9,7.7,16.1,13,26.1,15c0.5,0.2,1,0.1,1.5-0.2
							c0.1-0.1,0.1-0.4,0.1-0.6c-0.2-3.1-3-8.3-5.2-9.4c-2.9-1.6-6.7-3.9-9.7-5.8c-1.3-0.8-2.4-1.5-3.3-2
							C210.3,674.6,209.8,674.5,209.2,674.6L209.2,674.6z M238.8,672.6c-15.5,0.2-28.2-12.3-28.5-28c-0.2-15.7,12.1-28.6,27.6-28.9
							c15.5-0.2,28.2,12.3,28.5,28c0,0.1,0,0.3,0,0.4C266.5,659.8,254.2,672.5,238.8,672.6C238.8,672.6,238.8,672.6,238.8,672.6
							L238.8,672.6z M238.9,618.7v2.3c-12.7-0.1-23.2,10.3-23.3,23.2c0,0.1,0,0.2,0,0.2c-0.1,6.2,2.3,12.2,6.7,16.5
							c4.3,4.5,10.3,7,16.5,7c12.8-0.1,23.1-10.7,23.1-23.7c0.1-12.8-10.1-23.2-22.7-23.3c-0.1,0-0.2,0-0.3,0L238.9,618.7z
							 M285.6,665.9c-1.9,0-3.4-1.4-4.4-2.4c-4.1-4.3-7.3-8.5-6.5-15.8c0.2-1.8,0.4-6.4,0.4-9.5c0-5.2,1.9-8.8,6.7-12.9
							c1.8-1.5,3.3-2.2,4.9-2.2c1,0,3.4,0.4,4.5,3.9c3.5,11.7,3.1,24.2-1.4,35.5C288.7,665.2,286.9,665.9,285.6,665.9L285.6,665.9z
							 M286.6,627.5c-0.7,0.3-1.3,0.7-1.8,1.2c-4.3,3.7-5.1,6.1-5.1,9.4s-0.2,8.2-0.4,10.1c-0.6,5.4,1.6,8.2,5.2,12.1
							c0.4,0.4,0.7,0.6,0.9,0.8c0.1-0.1,0.1-0.3,0.2-0.4c4.1-10.4,4.5-21.8,1.3-32.4C286.8,628,286.7,627.7,286.6,627.5L286.6,627.5
							z M193.1,665.8c-2.3,0-5.6-1.9-6.4-4.1c-3.5-11-3.3-22.8,0.5-33.6c0.8-2.9,3.8-4.6,6.7-3.8c0.2,0.1,0.4,0.1,0.6,0.2
							c3.7,1.4,8.5,9.1,8.1,13.1v15.3c0,3.5-4.9,12.4-9.2,12.8C193.4,665.6,193.2,665.7,193.1,665.8L193.1,665.8z M192.3,628.5
							c-0.1,0-0.4,0-0.7,0.8c-3.5,9.9-3.7,20.6-0.5,30.6c0.6,0.5,1.3,0.9,2.1,1c1.5-0.4,5.1-6.1,5-8.2v-15.6
							c0.2-2.1-3.5-7.9-5.2-8.7C192.7,628.6,192.5,628.5,192.3,628.5z M269.3,618.4c-3.6,0-7.1-1.3-9.8-3.6
							c-2.5-1.9-5.1-3.7-7.8-5.3c-4.4-2.8-6.5-6.3-7.4-12.5c-0.4-2.7-0.1-4.7,1-5.9c0.9-1,2.1-1.6,3.4-1.5c0.6,0,1.2,0.1,1.8,0.2
							c11.6,3,21.9,9.9,29.2,19.6c1.2,1.3,1.7,3.2,1.1,4.9c-0.8,2.4-3.8,3.1-4.7,3.3C273.8,618,271.6,618.3,269.3,618.4z
							 M248.6,594.1c-0.1,0.7,0,1.4,0.1,2.1c0.8,5.6,2.5,7.6,5.3,9.3c2.8,1.7,6.7,4.5,8.3,5.6c2,1.7,4.5,2.6,7.1,2.5
							c2-0.1,3.9-0.4,5.9-0.8c0.4-0.1,0.8-0.2,1.1-0.3c-0.1-0.1-0.2-0.3-0.3-0.4c-6.6-8.9-16-15.3-26.6-18L248.6,594.1z M209,617.4
							c-2.2,0-4.4-0.4-6.5-1.2c-2.8-0.8-4.5-2.2-5-4c-0.3-1.1-0.3-2.9,1.4-4.9c7.7-9.3,18.3-15.7,30.1-18.1c2.8-0.6,4.4,0.4,5.1,1.4
							c0.9,1.3,1.1,3,0.6,5.4c-1.4,5.7-3,10.8-9.5,14.1c-2.8,1.5-5.5,3.1-8.1,4.9C214.6,616.6,211.8,617.4,209,617.4L209,617.4z
							 M201.9,611c0.6,0.4,1.3,0.7,2,0.8c4.7,1.5,7.3,1.4,10.6-0.8c2.7-1.8,6.9-4.2,8.6-5.1c4.8-2.4,6-5.8,7.1-11
							c0.1-0.4,0.2-0.8,0.2-1.2c-0.2,0-0.4,0-0.5,0.1c-10.8,2.2-20.5,8.1-27.6,16.6C202,610.7,201.9,610.8,201.9,611L201.9,611z"/>
					</g>
				</g>
				<g id="Group-22">
					<g id="Group-23">
						<g id="Vector-21">
							<path id="path39_fill" class="st3" d="M575.5,458.9h-0.6c-5.6,0-10.6-3.5-12.6-8.8c-0.6-1.6-0.9-3.3-1-5h-38.9
								c-13.4,0-26.8,0-40.1-0.1c-3.8,0-7.6-0.3-11.3-1.1c-13.8-3.1-22.6-13.4-24.9-28.8c-0.1-0.6-0.2-1.1-0.4-1.7l-0.3-1
								c0-0.2-0.1-0.4-0.1-0.6v-33.6c0-0.2,0-0.4,0.1-0.5l0.3-1.4c0.2-1.1,0.4-2,0.6-3.1c3.7-18.1,15.1-28.2,32.5-28.3
								c11.9-0.1,23.8-0.1,35.8-0.1h48.2l0.2-1.4c1.5-7.7,6.6-11.6,14.5-10.7c6.4,0.7,10.5,5.8,10.6,13.1v3.7
								c0,13.8,0.1,27.6,0.1,41.2c0,18.3,0.8,27.6,1.4,34.4c0.3,3.2,0.5,6,0.6,8.9c0.1,5.1,0.3,10.8-1.9,16.4
								C586.1,455.9,581.4,458.9,575.5,458.9z M559.2,440.5h4.2c1.3,0,2.3,1,2.3,2.3c-0.1,1.9,0.2,3.8,0.8,5.6
								c1.4,3.6,4.5,5.7,8.6,5.8h0.5c2.9,0,6.8-1,8.5-5.3c1.7-4.3,1.8-9,1.6-14.5c-0.1-2.8-0.3-5.4-0.6-8.7
								c-1-11.5-1.5-23.1-1.4-34.7c0-13.8,0-27.5-0.1-41.2v-3.7c0-5-2.4-8.1-6.5-8.6c-5.4-0.6-8.6,1.6-9.6,7l-0.6,3.2
								c-0.2,1.1-1.1,1.9-2.2,1.9h-50.1c-11.9,0-23.8,0-35.8,0.1c-14.9,0.1-25,8.8-28.1,24.6c-0.2,1.1-0.4,2.1-0.7,3.2l-0.2,1.2
								v32.9c0.1,0.2,0.1,0.4,0.2,0.5c0.2,0.8,0.4,1.5,0.5,2.3c2,13.7,9.4,22.4,21.4,25c3.4,0.7,6.8,1,10.2,1
								c13.4,0,26.8,0.1,40,0.1L559.2,440.5z M561.5,433.3h-17.9c-20.6,0-41.9,0-62.8-0.2c-4.1,0-8.1-1.2-11.6-2.2
								c-8.1-2.5-12.8-9.1-13.1-18.6c-0.3-11.2-0.3-22.4,0-32.8c0.3-10.2,5.3-17.6,13.8-20.3c5.6-1.8,11.5-2.7,17.4-2.8
								c10.1-0.1,20.8-0.2,34.6-0.2h43.6c1.2,0,2.2,0.8,2.3,2c0.1,0.7,0.1,1.5,0,2.2v52.7c0,3.7-0.4,7.4-1.1,11
								c-0.4,2.2-0.7,4.4-0.7,6.6c0,1.2-0.9,2.1-2,2.3l-0.9,0.1C562.5,433.3,562,433.3,561.5,433.3L561.5,433.3z M521.9,360.9
								c-13.8,0-24.5,0-34.6,0.2c-5.4,0.1-10.8,1-16,2.5c-8.5,2.7-10.5,10.3-10.7,16.1c-0.3,10.4-0.3,21.3,0,32.5
								c0.2,5.2,2,11.9,9.8,14.3c3.3,1.2,6.8,1.8,10.4,2c20.9,0.2,42.2,0.2,62.8,0.2h17.8c0.1-1.8,0.4-3.5,0.7-5.3
								c0.7-3.3,1-6.8,1-10.2v-52.2h-21.7C535,360.9,528.4,360.9,521.9,360.9L521.9,360.9z"/>
						</g>
					</g>
				</g>
				<g id="Group-24">
					<g id="Group-25">
						<g id="Group-26">
							<g id="Vector-22">
								<path id="path40_fill" class="st3" d="M40.8,413.8c-0.5,0-0.9-0.1-1.3-0.4c-1-0.7-1.3-2.1-0.6-3.2l14.1-20.8
									c0.7-1.1,2.1-1.3,3.1-0.6s1.3,2.1,0.6,3.2l-14.1,20.8C42.3,413.4,41.6,413.8,40.8,413.8z"/>
							</g>
						</g>
						<g id="Group-27">
							<g id="Vector-23">
								<path id="path41_fill" class="st3" d="M40.8,413.8c-0.7,0-1.3-0.3-1.8-0.8L24.5,394c-0.8-1-0.6-2.5,0.4-3.3s2.5-0.6,3.2,0.4
									l14.5,18.8c0.8,1,0.6,2.5-0.4,3.3C41.9,413.5,41.4,413.7,40.8,413.8z"/>
							</g>
						</g>
						<g id="Group-28">
							<g id="Vector-24">
								<path id="path42_fill" class="st3" d="M39.6,435h-0.1c-1.2-0.1-2.2-1.1-2.1-2.4c0,0,0,0,0,0l1.3-21.2
									c0.1-1.3,1.2-2.2,2.4-2.1c1.2,0.1,2.2,1.2,2.1,2.4l0,0l-1.3,21.2C41.7,434,40.8,434.9,39.6,435z"/>
							</g>
						</g>
						<g id="Group-29">
							<g id="Vector-25">
								<path id="path43_fill" class="st3" d="M42.3,437.3h-5.1c-1.3,0-2.3-1-2.3-2.3s1-2.3,2.3-2.3h5.1c1.3,0,2.3,1,2.3,2.3
									S43.6,437.3,42.3,437.3z"/>
							</g>
						</g>
						<g id="Group-30">
							<g id="Vector-26">
								<path id="path44_fill" class="st3" d="M27,393.8c-0.8,0-1.6,0-2.4-0.1l-1.7-0.1c-11.6-0.8-35.6-2.7-35.2-16.9
									c0.8-26.6,20.5-41.3,55.6-41.3c30.8,0,46.4,26,54.8,39.9c1.4,2.6,3.1,5.1,4.9,7.4c1.2,1,1.5,2.7,0.9,4.1
									c-1.1,2.8-5.4,3.6-16.7,3.6c-3.9,0-8-0.1-12.1-0.2c-3.7-0.1-7-0.2-9.9-0.2c-6.8,0-14.3,1.1-21.5,2
									C37.4,393,31.5,393.8,27,393.8z M43.3,340.1c-32.6,0-50.3,12.7-51,36.9c-0.3,9.8,22.4,11.3,30.9,12l1.7,0.1
									c4.4,0.3,11-0.5,18-1.5c7-1,15.1-2,22.2-2c2.9,0,6.4,0.1,10,0.2c4,0.1,8.1,0.2,12,0.2c7.2,0,10.5-0.4,11.8-0.8
									c-1.7-2.4-3.4-4.9-4.8-7.4C85.8,363.6,71.6,340.1,43.3,340.1z"/>
							</g>
						</g>
					</g>
					<g id="Group-31">
						<g id="Vector-27">
							<path id="path45_fill" class="st3" d="M14.9,354.8c1.6-0.4,3.9-1.2,6.5-2.1c1.3-0.4,2.7-1,4.3-1.4c1.6-0.5,3.2-1,4.9-1.3
								c1.8-0.3,3.6-0.7,5.4-1.1l5.8-0.3c1.9-0.1,3.8,0,5.7,0.3c1.9,0.1,3.7,0.4,5.5,0.8c1.8,0.4,3.5,1,5,1.4
								c1.5,0.3,2.9,0.9,4.3,1.6c5.2,2.4,8.4,4.3,8.4,4.3s-3.8-0.6-9.1-2c-2.6-0.7-6-1-9.2-1.7c-1.7-0.4-3.5-0.2-5.2-0.4
								c-1.8-0.2-3.5-0.3-5.3-0.2c-1.8,0.1-3.6,0.1-5.3,0.2l-5.2,0.6c-1.7,0.1-3.3,0.5-4.9,0.7c-1.6,0.2-3.1,0.4-4.5,0.6
								c-2.2,0.3-4.5,0.5-6.8,0.5h-2.6C12.5,355.6,13.3,355.4,14.9,354.8z"/>
						</g>
					</g>
					<g id="Group-32">
						<g id="Vector-28">
							<path id="path46_fill" class="st3" d="M8,364.7c2.7-0.2,5.3-0.6,7.9-1.2c3.2-0.6,7.1-1.5,11.3-2.2c4.4-0.8,8.8-1.4,13.3-1.7
								c2.3-0.1,4.6-0.1,6.9-0.1s4.5,0.3,6.7,0.5c2.1,0.3,4.1,0.7,6.2,1.2c1.9,0.5,3.8,1,5.3,1.5c2.6,0.9,5.2,2,7.6,3.2
								c0.9,0.4,1.8,0.9,2.7,1.5c0,0-1.1-0.2-3-0.6c-0.9-0.2-2.1-0.5-3.4-0.8s-2.9-0.4-4.6-0.7s-3.5-0.4-5.3-0.7
								c-1.9-0.3-3.9-0.3-6-0.5c-4.3-0.2-8.6-0.2-12.9,0.1c-4.4,0.2-8.8,0.7-13,1.2c-4.2,0.4-8.1,0.8-11.5,1c-2.8,0.1-5.6,0-8.4-0.4
								c-1.9-0.4-3-0.7-3-0.7C5.9,364.7,7,364.7,8,364.7z"/>
						</g>
					</g>
					<g id="Group-33">
						<g id="Vector-29">
							<path id="path47_fill" class="st3" d="M78.2,377.2c-2.2-0.3-5.3-0.5-9.1-1.2c-1.9-0.3-3.9-0.2-6.1-0.4
								c-2.2-0.2-4.4-0.3-6.7-0.4c-2.3-0.1-4.7,0.1-7.2,0c-2.5-0.1-5,0-7.4,0.2c-2.5,0.1-5,0.2-7.4,0.4s-4.9,0.3-7.2,0.5l-6.9,0.3
								c-2.1,0.1-4.2,0-6.3-0.2c-1.8,0-3.5-0.2-5.2-0.5c-1.5-0.3-2.8-0.6-3.9-0.8c-2.2-0.5-3.5-0.8-3.5-0.8h3.5c1.1,0,2.5,0.1,4,0.1
								c1.7,0,3.4-0.1,5.1-0.3c1.9-0.2,3.8-0.2,6-0.5s4.4-0.5,6.7-0.8c4.7-0.6,9.7-1.2,14.8-1.5c2.5-0.2,5.1-0.2,7.6-0.1
								c2.5,0.1,5,0.1,7.4,0.3c2.4,0.2,4.7,0.7,6.9,1.1c2,0.2,4.1,0.6,6.1,1.2c3.7,1.1,6.7,2.1,8.8,2.8c2.1,0.6,3.3,1.2,3.3,1.2
								C80.5,377.5,79.4,377.4,78.2,377.2z"/>
						</g>
					</g>
				</g>
				<g id="Group-34">
					<g id="Union">
						<path id="path48_fill" class="st3" d="M438.6,622.8h4.6c-4-4.7-8.9-8.5-14.3-11.2c-8.7-4.3-20.1-6.1-20.1-1.1
							c0,3,2.2,2.8,5.6,2.4c2.5-0.4,5.1-0.5,7.7-0.1C429.3,613.9,438.6,622.8,438.6,622.8z M392.9,652.9c2.5,5.4,5.5,11.9,12.4,11.9
							c10.9,0,40.3-21.8,40.5-35.2c0-2.2-1.4-5-7.9-5c-4.9,0.2-9.7,0.8-14.4,1.9c-12.5,1.5-29.7,3.4-36.3,3.4
							c-6.1,0-21.8-1.4-34.6-2.6c-7.2-1.4-13.8-2.5-18.3-2.5c-5.3,0-8,1.6-8,4.8c0,9.3,24.7,34.7,39.8,34.7
							c9.4,0,13.6-7.6,16.8-13.4l0.1-0.1c1.5-2.7,3.1-5.6,4.3-5.6c2.3,0,4,3.6,5.7,7.5L392.9,652.9z M396.9,650.7
							c-2.3-5-4.7-10.2-9.9-10.2c-3.8,0-5.9,3.8-8.1,7.8l-0.2,0.3c-2.8,5.2-6.1,11-12.9,11c-12.6,0-34.7-23.1-35.3-29.8h0.2l0,0
							c1.1-0.3,2.2-0.4,3.3-0.4c6.1,0,16.9,2.3,26.9,4.4l0,0h0.1l2.2,0.5l3.1,0.6c8.6,1.8,16.5,3.4,20.8,3.4c4.9,0,13.8-2,23.2-4.2
							l2-0.4h0.2c9.4-2.1,19.5-4.4,25.3-4.4c1.1,0,2.1,0.1,3.2,0.4l0,0c0.2,0,0.3,0.1,0.3,0c0,9.6-26.4,30.5-35.8,30.5
							C401.5,660.1,399.5,656.4,396.9,650.7L396.9,650.7z M330.2,623h4.4c0,0,9-8.9,15.9-10.1c2.4-0.3,4.9-0.3,7.3,0.1
							c3.2,0.4,5.3,0.7,5.3-2.4c0-5-10.9-3.2-19.2,1.1C338.6,614.6,334,618.4,330.2,623L330.2,623z"/>
					</g>
				</g>
				<g id="Group-35">
					<g id="Group-36">
						<g id="Vector-30">
							<path id="path49_fill" class="st3" d="M55.3,634.7c-0.3,0-0.7-0.1-0.8-0.4c-0.4-0.4-0.3-1.1,0.1-1.5c0,0,0.1-0.1,0.1-0.1
								l12.1-10.1c0.5-0.4,1.2-0.2,1.6,0.3c0.3,0.5,0.2,1.1-0.2,1.5l-12.1,10.1C55.9,634.6,55.6,634.7,55.3,634.7z"/>
						</g>
					</g>
					<g id="Group-37">
						<g id="Vector-31">
							<path id="path50_fill" class="st3" d="M66.8,634.7c-0.3,0-0.7-0.1-0.8-0.4c-0.4-0.4-0.3-1.1,0.1-1.5c0,0,0.1-0.1,0.1-0.1
								l12.1-10.1c0.5-0.4,1.2-0.2,1.6,0.3c0.3,0.5,0.2,1.1-0.2,1.5l-12.1,10.1C67.4,634.6,67.1,634.7,66.8,634.7z"/>
						</g>
					</g>
					<g id="Group-38">
						<g id="Vector-32">
							<path id="path50_fill-2" class="st3" d="M78.3,634.7c-0.3,0-0.7-0.1-0.8-0.4c-0.4-0.4-0.3-1.1,0.1-1.5c0,0,0.1-0.1,0.1-0.1
								l12.1-10.1c0.5-0.4,1.2-0.2,1.6,0.3c0.3,0.5,0.2,1.1-0.2,1.5l-12.1,10.1C78.8,634.6,78.6,634.7,78.3,634.7z"/>
						</g>
					</g>
					<g id="Group-39">
						<g id="Vector-33">
							<path id="path51_fill" class="st3" d="M89.8,634.7c-0.3,0-0.7-0.1-0.8-0.4c-0.4-0.4-0.3-1.1,0.1-1.5c0,0,0.1-0.1,0.1-0.1
								l12.1-10.1c0.5-0.4,1.2-0.2,1.6,0.3c0.3,0.5,0.2,1.1-0.2,1.5l-12.1,10.1C90.3,634.6,90,634.7,89.8,634.7z"/>
						</g>
					</g>
					<g id="Group-40">
						<g id="Vector-34">
							<path id="path52_fill" class="st3" d="M101.2,634.7c-0.3,0-0.7-0.1-0.8-0.4c-0.4-0.4-0.3-1.1,0.1-1.5c0,0,0.1-0.1,0.1-0.1
								l12.1-10.1c0.5-0.4,1.2-0.2,1.6,0.3c0.3,0.5,0.2,1.1-0.2,1.5L102,634.5C101.8,634.6,101.5,634.7,101.2,634.7z"/>
						</g>
					</g>
					<g id="Group-41">
						<g id="Vector-35">
							<path id="path53_fill" class="st3" d="M112.7,634.7c-0.3,0-0.7-0.1-0.8-0.4c-0.4-0.4-0.3-1.1,0.1-1.5c0,0,0.1-0.1,0.1-0.1
								l12.1-10.1c0.5-0.4,1.2-0.2,1.6,0.3c0.3,0.5,0.2,1.1-0.2,1.5l-12.1,10.1C113.2,634.6,113,634.7,112.7,634.7z"/>
						</g>
					</g>
					<g id="Group-42">
						<g id="Vector-36">
							<path id="path54_fill" class="st3" d="M124.2,634.7c-0.3,0-0.7-0.1-0.8-0.4c-0.4-0.4-0.3-1.1,0.1-1.5c0,0,0.1-0.1,0.1-0.1
								l12.1-10.1c0.5-0.4,1.2-0.2,1.6,0.3c0.3,0.5,0.2,1.1-0.2,1.5L125,634.5C124.7,634.6,124.5,634.7,124.2,634.7z"/>
						</g>
					</g>
					<g id="Group-43">
						<g id="Vector-37">
							<path id="path55_fill" class="st3" d="M135.6,634.7c-0.3,0-0.7-0.1-0.8-0.4c-0.4-0.4-0.3-1.1,0.1-1.5c0,0,0.1-0.1,0.1-0.1
								l12.1-10.1c0.5-0.4,1.2-0.2,1.6,0.3c0.3,0.5,0.2,1.1-0.2,1.5l-12.1,10.1C136.1,634.6,135.9,634.7,135.6,634.7z"/>
						</g>
					</g>
					<g id="Group-44">
						<g id="Vector-38">
							<path id="path56_fill" class="st3" d="M62,645.9c-0.3,0-0.5-0.1-0.7-0.2l-12.1-10.1c-0.5-0.4-0.5-1.1-0.1-1.6
								c0.4-0.4,1-0.5,1.5-0.2l12.1,10.1c0.5,0.4,0.6,1.1,0.2,1.6C62.7,645.8,62.4,645.9,62,645.9z"/>
						</g>
					</g>
					<g id="Group-45">
						<g id="Vector-39">
							<path id="path56_fill-2" class="st3" d="M73.5,645.9c-0.3,0-0.5-0.1-0.7-0.2l-12.1-10.1c-0.5-0.4-0.5-1.1-0.1-1.6
								c0.4-0.4,1-0.5,1.5-0.2l12.1,10.1c0.5,0.4,0.6,1.1,0.2,1.6C74.2,645.8,73.9,645.9,73.5,645.9z"/>
						</g>
					</g>
					<g id="Group-46">
						<g id="Vector-40">
							<path id="path56_fill-3" class="st3" d="M85.1,645.9c-0.3,0-0.5-0.1-0.7-0.2l-12.2-10.1c-0.5-0.4-0.5-1.1-0.1-1.6
								c0.4-0.4,1-0.5,1.5-0.2l12.1,10.1c0.5,0.4,0.6,1.1,0.2,1.6C85.7,645.8,85.4,645.9,85.1,645.9z"/>
						</g>
					</g>
					<g id="Group-47">
						<g id="Vector-41">
							<path id="path57_fill" class="st3" d="M96.4,645.9c-0.3,0-0.5-0.1-0.7-0.2l-12.1-10.1c-0.5-0.4-0.5-1.1-0.1-1.6
								c0.4-0.4,1-0.5,1.5-0.2L97,643.9c0.5,0.4,0.6,1.1,0.3,1.6C97.2,645.8,96.7,645.9,96.4,645.9z"/>
						</g>
					</g>
					<g id="Group-48">
						<g id="Vector-42">
							<path id="path58_fill" class="st3" d="M107.9,645.9c-0.3,0-0.5-0.1-0.7-0.2l-12.1-10.1c-0.5-0.4-0.5-1.1-0.1-1.6
								c0.4-0.4,1-0.5,1.5-0.2l12.2,10.1c0.5,0.4,0.6,1.1,0.2,1.6C108.6,645.8,108.3,646,107.9,645.9z"/>
						</g>
					</g>
					<g id="Group-49">
						<g id="Vector-43">
							<path id="path59_fill" class="st3" d="M9.3,634.7c-0.3,0-0.7-0.1-0.8-0.4c-0.4-0.4-0.3-1.1,0.1-1.5c0,0,0.1-0.1,0.1-0.1
								l12.1-10.1c0.4-0.4,1.1-0.4,1.5,0.1c0,0,0.1,0.1,0.1,0.1c0.4,0.4,0.3,1.1-0.1,1.5c0,0-0.1,0.1-0.1,0.1L10,634.5
								C9.8,634.6,9.5,634.7,9.3,634.7z"/>
						</g>
					</g>
					<g id="Group-50">
						<g id="Vector-44">
							<path id="path60_fill" class="st3" d="M20.7,634.7c-0.3,0-0.7-0.1-0.8-0.4c-0.4-0.4-0.3-1.1,0.1-1.5c0,0,0.1-0.1,0.1-0.1
								l12.1-10.1c0.5-0.4,1.2-0.2,1.6,0.3c0.3,0.5,0.2,1.1-0.2,1.5l-12.1,10.1C21.2,634.6,20.9,634.7,20.7,634.7z"/>
						</g>
					</g>
					<g id="Group-51">
						<g id="Vector-45">
							<path id="path61_fill" class="st3" d="M32.2,634.7c-0.3,0-0.7-0.1-0.8-0.4c-0.4-0.4-0.3-1.1,0.1-1.5c0,0,0.1-0.1,0.1-0.1
								l12.1-10.1c0.5-0.4,1.2-0.2,1.6,0.3c0.3,0.5,0.2,1.1-0.2,1.5l-12.1,10.1C32.7,634.6,32.4,634.7,32.2,634.7z"/>
						</g>
					</g>
					<g id="Group-52">
						<g id="Vector-46">
							<path id="path62_fill" class="st3" d="M43.7,634.7c-0.3,0-0.7-0.1-0.8-0.4c-0.4-0.4-0.3-1.1,0.1-1.5c0,0,0.1-0.1,0.1-0.1
								l12.1-10.1c0.5-0.4,1.2-0.2,1.6,0.3c0.3,0.5,0.2,1.1-0.2,1.5l-12.1,10.1C44.2,634.6,43.9,634.7,43.7,634.7z"/>
						</g>
					</g>
					<g id="Group-53">
						<g id="Vector-47">
							<path id="path66_fill" class="st3" d="M27.3,645.9c-0.3,0-0.5-0.1-0.7-0.2l-12.1-10.1c-0.5-0.4-0.6-1.1-0.2-1.6
								c0.4-0.5,1.1-0.6,1.6-0.2L28,643.9c0.5,0.4,0.6,1.1,0.2,1.6C28,645.8,27.7,645.9,27.3,645.9z"/>
						</g>
					</g>
					<g id="Group-54">
						<g id="Vector-48">
							<path id="path66_fill-2" class="st3" d="M38.8,645.9c-0.3,0-0.5-0.1-0.7-0.2L26,635.6c-0.5-0.4-0.5-1.1-0.1-1.6
								c0.4-0.4,1-0.5,1.5-0.2l12.1,10.1c0.5,0.4,0.6,1.1,0.2,1.6C39.5,645.8,39.2,645.9,38.8,645.9z"/>
						</g>
					</g>
					<g id="Group-55">
						<g id="Vector-49">
							<path id="path67_fill" class="st3" d="M50.3,645.9c-0.3,0-0.5-0.1-0.7-0.2l-12.1-10.1c-0.5-0.4-0.5-1.1-0.1-1.6
								c0.4-0.4,1-0.5,1.5-0.2L51,643.9c0.5,0.4,0.6,1.1,0.2,1.6C51,645.8,50.7,646,50.3,645.9z"/>
						</g>
					</g>
					<g id="Group-56">
						<g id="Vector-50">
							<path id="path58_fill-2" class="st3" d="M119.4,645.9c-0.3,0-0.5-0.1-0.7-0.2l-12.1-10.1c-0.5-0.4-0.5-1.1-0.1-1.6
								c0.4-0.4,1-0.5,1.5-0.2l12.1,10.1c0.5,0.4,0.6,1.1,0.2,1.6C120.1,645.8,119.7,645.9,119.4,645.9z"/>
						</g>
					</g>
					<g id="Group-57">
						<g id="Vector-51">
							<path id="path68_fill" class="st3" d="M130.8,645.9c-0.3,0-0.5-0.1-0.7-0.2L118,635.6c-0.5-0.4-0.5-1.1-0.1-1.6
								c0.4-0.4,1-0.5,1.5-0.2l12.1,10.1c0.5,0.4,0.6,1.1,0.2,1.6C131.5,645.8,131.2,645.9,130.8,645.9z"/>
						</g>
					</g>
					<g id="Group-58">
						<g id="Vector-52">
							<path id="path69_fill" class="st3" d="M142.3,645.9c-0.3,0-0.5-0.1-0.7-0.2l-12.1-10.1c-0.5-0.4-0.5-1.1-0.1-1.6
								c0.4-0.4,1-0.5,1.5-0.2l12.1,10.1c0.5,0.4,0.6,1.1,0.2,1.6C142.9,645.8,142.6,645.9,142.3,645.9z"/>
						</g>
					</g>
				</g>
				<g id="Group-59">
					<g id="Group-60">
						<g id="Vector-53">
							<path id="path70_fill" class="st3" d="M526.3,627.3c5.2,0,9.4-4.3,9.4-9.5s-4.2-9.5-9.4-9.5s-9.4,4.3-9.4,9.5
								S521.1,627.3,526.3,627.3z"/>
						</g>
					</g>
					<g id="Group-61">
						<g id="Vector-54">
							<path id="path71_fill" class="st3" d="M514.2,639.9H491c-2.5,0-4.6-2.1-4.6-4.7s2.1-4.7,4.6-4.7l0,0h23.2
								c2.5,0,4.6,2.1,4.6,4.7S516.8,639.9,514.2,639.9z"/>
						</g>
					</g>
					<g id="Group-62">
						<g id="Vector-55">
							<path id="path72_fill" class="st3" d="M502.4,635.2c-0.8,0-1.5-0.4-2-1.1c-0.6-1.1-0.3-2.5,0.7-3.2l47.9-29.7
								c1.1-0.6,2.5-0.2,3.1,0.9c0.6,1.1,0.3,2.4-0.7,3.1l-47.9,29.7C503.2,635.1,502.8,635.2,502.4,635.2z"/>
						</g>
					</g>
					<g id="Group-63">
						<g id="Vector-56">
							<path id="path73_fill" class="st3" d="M526.8,685.5c-36.5,0-66.1-30-66.1-67s29.6-67,66-67s66.1,30,66.1,67c0,0,0,0,0,0
								C592.8,655.5,563.2,685.4,526.8,685.5z M526.8,556.1c-33.9,0-61.5,27.9-61.5,62.3c0,34.4,27.5,62.3,61.4,62.4
								c33.9,0,61.5-27.9,61.5-62.3c0,0,0,0,0,0C588.2,584.1,560.7,556.2,526.8,556.1L526.8,556.1z"/>
						</g>
					</g>
					<g id="Group-64">
						<g id="Vector-57">
							<path id="path74_fill" class="st3" d="M526.8,671.6c-28.9,0-52.4-23.8-52.4-53.1s23.4-53.1,52.4-53.1
								c28.9,0,52.4,23.8,52.4,53.1c0,0,0,0,0,0C579.1,647.8,555.7,671.5,526.8,671.6z M526.8,569.9c-26.4,0-47.9,21.7-47.9,48.5
								c0,26.8,21.4,48.6,47.9,48.6c26.4,0,47.9-21.7,47.9-48.5c0,0,0,0,0,0C574.6,591.7,553.2,570,526.8,569.9L526.8,569.9z"/>
						</g>
					</g>
					<g id="Group-65">
						<g id="Vector-58">
							<path id="path75_fill" class="st3" d="M525.6,488c-4.9,0-29.5-0.5-29.5-10.6c0-5.4,3.7-8.2,11-8.2c2.7,0,5.7,0.3,8.9,0.6
								c3.5,0.3,6.9,0.7,10.2,0.7c3.1,0,6.8-0.4,10.4-0.7c3.3-0.4,6.5-0.7,9.8-0.7c7,0,10.7,2.4,10.7,7.2c0,4.1-3.7,7.2-10.9,9.3
								C539.5,487.3,532.6,488.1,525.6,488z M507.1,473.9c-6.4,0-6.4,2-6.4,3.5c0,2.4,8.9,6,25,6c6.5,0.1,13-0.7,19.3-2.2
								c4.6-1.3,7.5-3.2,7.5-4.9c0-0.8,0-2.5-6.1-2.5c-3.1,0.1-6.3,0.3-9.4,0.7c-3.6,0.4-7.2,0.7-10.8,0.7c-3.6,0-7.1-0.3-10.7-0.7
								C512.6,474.2,509.6,473.9,507.1,473.9L507.1,473.9z"/>
						</g>
					</g>
				</g>
				<g id="Bike-bits">
					<g>
						<g id="Group-66">
							<defs>
								<rect id="SVGID_3_" x="374.8" y="360.4" width="25.3" height="20.4"/>
							</defs>
							<clipPath id="SVGID_4_">
								<use xlink:href="#SVGID_3_"  style="overflow:visible;"/>
							</clipPath>
							<g class="st4">
								<g id="Group-67">
									<g id="Group-68">
										<g id="Vector-59">
											<path id="path76_fill" class="st3" d="M8.2,573.2c-7.4-0.1-14.7-1.2-21.8-3.2c-2.6-0.7-5.9-3-6.8-5.6
												c-0.6-1.7-1.5-5.9,5-8.8c9.9-4.5,11.5-13.6,13.3-24.2l0.8-5c0.7-3.5,1.2-7,1.4-10.5c-0.1-1.2-0.5-2.3-1.3-3.2
												c-1.4-1.9-2.2-4.2-2.2-6.6c0-2.6,1-5.2,2.7-7.1c-4.3-2.2-12.9-7.2-12.9-20.6c0-10,8.3-20.3,21.9-20.3
												c12.6,0,21.2,10.7,21.2,20.6c0,12.9-8.9,18-12.6,20.3c-0.1,0.1-0.1,0.1-0.2,0.1c1.6,2,2.6,4.4,2.6,7c0,3-1.6,5.3-2.8,7
												c-0.4,0.5-0.8,1.2-1,1.8c1.1,8.7,2.7,18,4.5,27.7c1,5.7,5,9,11.2,12.5c2.3,1.3,7,4,5.1,9c-1.1,3.1-6.3,5.4-8.5,6
												C21.5,572.2,14.9,573.2,8.2,573.2z M8.5,463.1c-10.9,0-17.4,7.9-17.4,15.6c0,11.1,7.1,14.7,10.9,16.6
												c1.7,0.8,3.1,1.6,3.1,3.3v0.3c-0.2,1-0.8,1.9-1.7,2.5c-1.4,1.1-2.2,2.9-2.2,4.7c0,1.5,0.5,2.9,1.5,4c1.3,1.6,2,3.6,2,5.7
												c-0.1,3.8-0.6,7.6-1.5,11.3L2.5,532c-1.9,10.9-3.8,22.2-16,27.6c-3.1,1.4-2.7,2.5-2.6,3c0.9,1.4,2.2,2.4,3.8,2.9
												c14.3,3.9,25.9,4,39.1,0.4c2.1-0.6,5-2.4,5.4-3.2c0.4-0.7-0.1-1.5-3.1-3.3c-6.1-3.5-11.9-7.8-13.4-15.7
												c-1.8-9.8-3.3-19.2-4.5-28.2c-0.2-1.8,0.7-3.3,1.9-4.9c0.9-1.4,2-3,2-4.3c-0.1-1.6-0.7-3.2-1.8-4.5
												c-0.8-0.9-1.2-2-1.4-3.2c0-1.7,1.4-2.4,3-3.5c3.7-2.1,10.4-5.9,10.4-16.2C25.2,471.3,18.5,463.1,8.5,463.1L8.5,463.1z"/>
										</g>
									</g>
									<g id="Group-69">
										<g id="Vector-60">
											<path id="path78_fill" class="st3" d="M30.4,599.3c-0.4,0-0.8-0.3-0.9-0.6l-9.4-17c-0.3-0.6-0.1-1.3,0.4-1.6
												c0.6-0.3,1.2-0.1,1.6,0.4l9.4,17c0.3,0.6,0.1,1.3-0.4,1.6C30.8,599.1,30.6,599.2,30.4,599.3z"/>
										</g>
									</g>
									<g id="Group-70">
										<g id="Vector-61">
											<path id="path80_fill" class="st3" d="M27.9,562.7c-5.7-6.1-34.9-6.1-40.6-0.1C-7.8,568.6,21.6,568.9,27.9,562.7z"/>
										</g>
									</g>
								</g>
							</g>
						</g>
					</g>
				</g>
			</g>
		</g>
	</g>
</g>
<g id="AUTHOR">
	<path id="path1_fill" class="st5" d="M396.9,649.8c-0.1,0-0.2,0-0.2-0.1c0,0,0,0,0,0v-11c0-0.1,0.1-0.2,0.2-0.2h3.5
		c1.1-0.1,2.2,0.2,3.1,0.8c1.2,0.9,1.5,2.5,0.6,3.7c-0.4,0.5-0.9,0.8-1.5,1c0,0-0.1,0-0.1,0.1s0,0,0.1,0.1c1.4,0.2,2.4,1.3,2.3,2.7
		c0.1,0.9-0.4,1.8-1.1,2.3c-1,0.6-2.2,0.8-3.3,0.8L396.9,649.8z M400.6,643.5c0.6,0,1.3-0.1,1.8-0.5c0.5-0.3,0.8-0.9,0.8-1.5
		c0-0.6-0.2-1.2-0.7-1.5c-0.6-0.4-1.3-0.6-2-0.5h-2.1c-0.1,0-0.2,0.1-0.2,0.2v3.6c0,0.1,0,0.2,0.1,0.2L400.6,643.5z M400.4,648.8
		c0.8,0.1,1.6-0.1,2.2-0.5c0.5-0.3,0.8-0.9,0.7-1.5c0-0.6-0.2-1.2-0.8-1.6c-0.6-0.4-1.3-0.5-2-0.5h-2.3c-0.1,0-0.1,0-0.2,0
		c0,0,0,0.1,0,0.1v3.7c0,0.1,0,0.1,0,0.2c0,0,0.1,0,0.1,0L400.4,648.8z M407.5,652.4c-0.2,0-0.5,0-0.7,0c-0.1,0-0.2-0.1-0.2-0.2
		v-0.6c0-0.1,0-0.1,0.1-0.2c0.1,0,0.2,0,0.4,0h1c0.3,0,0.5-0.1,0.7-0.3c0.2-0.2,0.4-0.4,0.5-0.7c0.1-0.2,0.2-0.5,0.2-0.8
		c0-0.1,0-0.3-0.1-0.4l-3-7.4c0,0,0-0.1,0-0.1c0-0.1,0.1-0.2,0.2-0.2h1c0.1,0,0.2,0.1,0.2,0.2l2.3,6c0,0.1,0,0.1,0.1,0.1
		c0.1,0,0.1-0.1,0.1-0.2l2.3-5.9c0-0.1,0.1-0.2,0.2-0.2h0.7c0.1,0,0.1,0,0.1,0.1c0,0,0,0.1,0,0.1l-3.4,8.6c-0.2,0.6-0.5,1.1-1,1.4
		C408.7,652.3,408.1,652.4,407.5,652.4L407.5,652.4z M419,638.5h2.4c1.6-0.1,3.3,0.4,4.5,1.4c1,1.1,1.6,2.6,1.4,4.2
		c0,3.8-2,5.8-6.1,5.8H419c-0.1,0-0.2-0.1-0.2-0.2v-10.9c0,0,0-0.1,0-0.2C418.9,638.5,419,638.4,419,638.5z M420.4,639.6
		c-0.1,0-0.1,0.1-0.1,0.2v8.8c0,0,0,0.1,0,0.1c0,0,0.1,0,0.1,0h0.6c0.9,0,1.9-0.1,2.8-0.5c0.7-0.3,1.2-0.8,1.5-1.5
		c0.7-1.7,0.7-3.6,0-5.4c-0.3-0.6-0.8-1.1-1.5-1.4c-0.8-0.3-1.7-0.5-2.6-0.5L420.4,639.6z M434.3,648.9c-0.7,0.7-1.7,1.1-2.7,1.1
		c-0.7,0-1.4-0.2-1.9-0.6c-0.5-0.4-0.7-1-0.7-1.6c0-0.8,0.4-1.5,1-1.9c0.9-0.5,1.9-0.8,3-0.8l1.2-0.1c0.2,0,0.3-0.1,0.3-0.2v-0.4
		c0-0.5-0.2-0.9-0.5-1.3c-0.4-0.3-0.9-0.5-1.4-0.5c-0.9,0-1.7,0.5-2.2,1.2c0,0-0.1,0.1-0.1,0.1c0,0-0.1,0-0.1,0l-0.8-0.3
		c0,0-0.1-0.1-0.1-0.1c0,0,0-0.1,0-0.1c0.3-0.5,0.8-1,1.3-1.3c0.6-0.3,1.3-0.5,2-0.5c0.8-0.1,1.6,0.2,2.3,0.7
		c0.5,0.5,0.8,1.2,0.8,1.9v5.4c0,0.1,0,0.1,0,0.2c-0.1,0-0.1,0-0.2,0h-0.8c-0.1,0-0.2-0.1-0.2-0.2v-0.7c0-0.1,0-0.1-0.1-0.1
		C434.4,648.8,434.4,648.8,434.3,648.9L434.3,648.9z M434.5,645.9c0-0.2-0.1-0.2-0.2-0.2l-1,0.1c-0.8,0-1.5,0.2-2.2,0.5
		c-0.5,0.2-0.8,0.7-0.8,1.3c0,0.4,0.2,0.8,0.5,1c0.3,0.3,0.8,0.4,1.2,0.4c0.3,0,0.6-0.1,0.9-0.2c0.3-0.1,0.6-0.3,0.8-0.5
		c0.2-0.2,0.4-0.4,0.5-0.6c0.1-0.2,0.2-0.4,0.2-0.6L434.5,645.9z M438.2,649.8c-0.1,0-0.2-0.1-0.2-0.2v-7.7c0-0.1,0.1-0.2,0.2-0.2
		h0.9c0.1,0,0.2,0,0.2,0.1c0,0,0,0,0,0v0.9c0,0.1,0,0.1,0.1,0c0.5-0.4,0.9-0.7,1.5-1c0.4-0.2,0.9-0.3,1.4-0.3c0.7,0,1.3,0.2,1.8,0.6
		c0.5,0.4,0.7,1.1,0.7,1.7v5.7c0,0.2-0.1,0.2-0.2,0.2h-0.9c-0.1,0-0.2-0.1-0.2-0.2c0,0,0,0,0,0v-5.5c0-0.4-0.2-0.8-0.4-1.1
		c-0.3-0.3-0.8-0.4-1.2-0.4c-0.4,0-0.8,0.1-1.2,0.3c-0.5,0.3-0.9,0.6-1.3,1v5.8c0,0.1,0,0.1-0.1,0.2c-0.1,0-0.1,0-0.2,0L438.2,649.8
		z M448.3,640c0,0.1,0,0.2-0.1,0.2c-0.1,0-0.1,0.1-0.2,0.1h-0.9c-0.2,0-0.2-0.1-0.2-0.3v-1.3c0-0.2,0.1-0.2,0.2-0.2h1
		c0.1,0,0.1,0,0.1,0.1c0,0,0.1,0.1,0.1,0.2L448.3,640z M448.3,649.6c0,0.1,0,0.2-0.1,0.2c-0.1,0-0.1,0-0.2,0h-0.8
		c-0.1,0-0.1,0-0.2,0c0-0.1,0-0.1,0-0.2v-7.7c0-0.1,0.1-0.2,0.2-0.2h0.9c0.1,0,0.2,0.1,0.2,0.2L448.3,649.6z M451.5,646.3
		c0,0.5,0.1,1,0.4,1.4c0.2,0.4,0.6,0.8,1,1c0.4,0.2,0.9,0.4,1.4,0.4c1,0,1.9-0.5,2.4-1.3c0,0,0.1-0.1,0.1-0.1c0,0,0.1,0,0.1,0
		l0.6,0.3c0.1,0.1,0.1,0.1,0,0.2c-0.4,0.6-0.8,1-1.4,1.3c-0.6,0.3-1.3,0.4-2,0.4c-0.7,0-1.4-0.2-2-0.5c-0.6-0.3-1.1-0.9-1.4-1.5
		c-0.3-0.7-0.5-1.4-0.5-2.2c0-0.8,0.2-1.6,0.5-2.3c0.3-0.6,0.8-1.1,1.4-1.5c0.6-0.4,1.3-0.5,2-0.5c0.7,0,1.4,0.1,2,0.5
		c0.6,0.3,1,0.8,1.3,1.4c0.3,0.7,0.5,1.5,0.5,2.2v0.1c0,0.1,0,0.1,0,0.2c0,0-0.1,0.1-0.2,0.1h-5.9
		C451.6,646,451.5,646.1,451.5,646.3L451.5,646.3z M456.2,645.2c0.1,0,0.1,0,0.2,0c0-0.1,0-0.1,0-0.2c0-0.4-0.1-0.9-0.3-1.2
		c-0.2-0.4-0.5-0.7-0.8-0.9c-0.4-0.2-0.8-0.4-1.3-0.3c-0.5,0-1,0.1-1.4,0.4c-0.4,0.2-0.7,0.6-0.9,1c-0.2,0.4-0.3,0.9-0.3,1.3
		L456.2,645.2z M460.9,649.6c0,0.1,0,0.2-0.1,0.2c-0.1,0-0.1,0-0.2,0h-0.8c-0.1,0-0.1,0-0.2,0c0-0.1,0-0.1,0-0.2v-11
		c0-0.1,0.1-0.2,0.2-0.2h0.9c0.1,0,0.2,0.1,0.2,0.2L460.9,649.6z M473,640.6c-0.6-0.8-1.6-1.2-2.6-1.2c-0.6,0-1.3,0.1-1.8,0.5
		c-0.4,0.3-0.7,0.9-0.7,1.4c0,0.8,0.5,1.4,1.6,1.8l2.2,0.7c0.8,0.2,1.4,0.6,2,1.2c0.4,0.5,0.6,1.2,0.6,1.8c0,0.9-0.4,1.8-1.1,2.3
		c-0.9,0.6-1.9,0.9-3,0.8c-0.8,0-1.7-0.2-2.4-0.5c-0.7-0.3-1.3-0.8-1.7-1.4c0,0,0-0.1-0.1-0.2c0-0.1,0.1-0.1,0.1-0.2l0.5-0.4
		c0.1,0,0.1-0.1,0.2-0.1c0.1,0,0.1,0,0.2,0.1c0.3,0.5,0.8,0.9,1.3,1.2c1.2,0.5,2.6,0.5,3.7-0.1c0.5-0.3,0.8-0.9,0.7-1.4
		c0-0.4-0.1-0.7-0.4-1c-0.4-0.4-0.8-0.6-1.4-0.8l-2.3-0.8c-0.7-0.2-1.3-0.6-1.8-1.2c-0.4-0.5-0.6-1.1-0.6-1.7c0-0.6,0.2-1.2,0.5-1.7
		c0.3-0.5,0.8-0.9,1.4-1.1c1.3-0.5,2.8-0.5,4.1,0c0.6,0.3,1.1,0.6,1.6,1.1c0,0,0.1,0.1,0.1,0.2c0,0.1,0,0.1-0.1,0.1l-0.7,0.5
		c0,0-0.1,0-0.1,0C473.2,640.7,473.1,640.7,473,640.6L473,640.6z M479.8,641.6c0.7,0,1.3,0.2,1.9,0.5c0.5,0.3,1,0.8,1.3,1.4v0.1
		c0,0.1,0,0.1-0.1,0.1l-0.8,0.2l0,0c-0.1,0-0.1,0-0.1-0.1c-0.3-0.4-0.6-0.7-1-1c-0.3-0.2-0.6-0.3-1-0.3c-0.7,0-1.4,0.3-1.9,0.9
		c-0.9,1.5-0.9,3.3,0,4.8c0.5,0.6,1.2,0.9,1.9,0.9c0.4,0,0.9-0.1,1.3-0.3c0.4-0.3,0.8-0.7,1-1.1c0-0.1,0-0.1,0.1-0.1
		c0,0,0.1,0,0.1,0l0.7,0.2c0.1,0,0.1,0.1,0.1,0.2c-0.3,0.6-0.8,1.1-1.3,1.5c-0.6,0.4-1.3,0.6-2,0.5c-0.7,0-1.4-0.2-2-0.5
		c-0.6-0.4-1.1-0.9-1.4-1.5c-0.3-0.7-0.5-1.4-0.5-2.2c0-0.8,0.2-1.5,0.5-2.2c0.3-0.6,0.8-1.2,1.4-1.5
		C478.3,641.7,479,641.5,479.8,641.6L479.8,641.6z M484.9,649.9c-0.1,0-0.2-0.1-0.2-0.2c0,0,0,0,0,0v-11c0-0.1,0.1-0.2,0.2-0.2h0.9
		c0.1,0,0.2,0.1,0.2,0.2v4.1c0,0.1,0,0.1,0.1,0c0.5-0.4,1-0.7,1.5-1c0.4-0.2,0.9-0.3,1.4-0.3c0.7,0,1.3,0.2,1.8,0.6
		c0.4,0.5,0.7,1.1,0.6,1.7v5.7c0,0.2-0.1,0.2-0.2,0.2h-0.9c-0.1,0-0.2-0.1-0.2-0.2c0,0,0,0,0,0v-5.5c0-0.4-0.1-0.9-0.4-1.2
		c-0.3-0.3-0.8-0.4-1.2-0.4c-0.4,0-0.8,0.1-1.2,0.3c-0.5,0.3-0.9,0.6-1.3,1v5.8c0,0.2-0.1,0.2-0.2,0.2L484.9,649.9z M504,641.7
		c0.1,0,0.1,0,0.1,0.1c0,0,0,0.1,0,0.1l-2.4,7.7c0,0.1-0.2,0.2-0.3,0.2h-0.7c-0.1,0-0.3-0.1-0.3-0.2l-1.8-5.7c0-0.1,0-0.1-0.1-0.1
		c-0.1,0,0,0-0.1,0.1l-1.7,5.7c0,0.1-0.2,0.2-0.3,0.2h-0.8c-0.1,0-0.3-0.1-0.3-0.2l-2.4-7.7c0,0,0-0.1,0-0.1c0-0.1,0.1-0.2,0.2-0.2
		h0.9c0.1,0,0.2,0.1,0.2,0.2l1.8,6c0,0.1,0,0.2,0.1,0.2c0.1,0,0.1-0.1,0.1-0.2l1.8-6c0-0.1,0.1-0.2,0.2-0.2h0.7
		c0.1,0,0.2,0.1,0.2,0.2l1.9,6c0,0.1,0,0.2,0.1,0.2c0.1,0,0.1-0.1,0.1-0.2l1.8-6c0-0.1,0.1-0.2,0.3-0.2L504,641.7z M510.5,648.9
		c-0.7,0.7-1.7,1.1-2.7,1.1c-0.7,0-1.4-0.2-1.9-0.6c-0.5-0.4-0.7-1-0.7-1.6c0-0.8,0.4-1.5,1-1.9c0.9-0.5,1.9-0.8,3-0.8l1.2-0.1
		c0.2,0,0.3-0.1,0.3-0.2v-0.4c0-0.5-0.2-1-0.5-1.3c-0.4-0.3-0.9-0.5-1.4-0.5c-0.9,0-1.7,0.5-2.2,1.2c0,0-0.1,0.1-0.1,0.1
		c0,0-0.1,0-0.1,0l-0.8-0.3c0,0-0.1-0.1-0.1-0.1c0,0,0-0.1,0-0.1c0.3-0.5,0.8-1,1.3-1.3c0.6-0.3,1.3-0.5,2-0.5
		c0.8-0.1,1.6,0.2,2.3,0.7c0.5,0.5,0.8,1.2,0.8,1.9v5.4c0,0.1,0,0.1,0,0.2c-0.1,0-0.1,0-0.2,0H511c-0.1,0-0.2-0.1-0.2-0.2v-0.7
		c0-0.1,0-0.1-0.1-0.1C510.7,648.8,510.6,648.8,510.5,648.9L510.5,648.9z M510.7,645.9c0-0.2-0.1-0.2-0.2-0.2l-1,0.1
		c-0.8,0-1.5,0.2-2.2,0.5c-0.5,0.2-0.8,0.7-0.8,1.3c0,0.4,0.2,0.8,0.5,1c0.4,0.3,0.8,0.4,1.3,0.4c0.3,0,0.6-0.1,0.9-0.2
		c0.3-0.1,0.6-0.3,0.8-0.5c0.2-0.2,0.4-0.4,0.5-0.6c0.1-0.2,0.2-0.4,0.2-0.6L510.7,645.9z M514.4,649.8c-0.1,0-0.2-0.1-0.2-0.2v-7.7
		c0-0.1,0.1-0.2,0.2-0.2h0.9c0.1,0,0.2,0,0.2,0.1c0,0,0,0,0,0v1c0,0.1,0,0.1,0,0.1c0,0,0.1,0,0.1-0.1c0.6-0.8,1.4-1.3,2.4-1.4
		c0.4,0,0.5,0.1,0.5,0.2v0.9c0,0.1,0,0.1-0.1,0.1c-0.2,0-0.5,0-0.7,0c-0.3,0-0.7,0.1-1,0.3c-0.3,0.2-0.6,0.4-0.9,0.7
		c-0.2,0.2-0.3,0.5-0.3,0.8v5.1c0,0.1-0.1,0.2-0.2,0.2c0,0,0,0-0.1,0L514.4,649.8z M519.6,649.8c-0.1,0-0.2,0-0.2-0.1
		c0,0,0-0.1,0-0.1v-0.5c0-0.1,0-0.1,0-0.2c0-0.1,0.1-0.2,0.2-0.2l4.5-6v-0.1c0,0,0-0.1-0.1-0.1h-4.1c0,0-0.1,0-0.1,0
		c0,0,0-0.1,0-0.1v-0.6c0-0.1,0-0.2,0.2-0.2h5.7c0.1,0,0.1,0,0.1,0.2v0.5c0,0.1-0.1,0.3-0.2,0.4l-4.5,6c0,0.1,0,0.1,0,0.1
		c0.1,0,0,0,0.1,0h4.5c0.1,0,0.2,0,0.2,0.1v0.6c0,0.1-0.1,0.2-0.2,0.2L519.6,649.8z"/>
</g>
<g id="Jump_Start_Sketch">
	<path id="path84_fill" class="st5" d="M76.5,293.9c0.5,0.3,1.1,0.6,1.7,0.8c1,0.3,2.1,0.5,3.1,0.5c0.8,0,1.7-0.1,2.4-0.5
		c0.6-0.4,1.1-0.9,1.4-1.6c0.4-0.9,0.6-1.8,0.6-2.7c0.1-1.1,0.2-2.5,0.2-4v-14.7h6.7v14.8c0,2-0.1,4.1-0.4,6.1
		c-0.2,1.6-0.7,3.2-1.5,4.6c-0.8,1.3-2,2.4-3.4,3c-1.9,0.8-3.9,1.1-6,1.1c-2.2,0.1-4.4-0.6-6.3-1.8L76.5,293.9z M103.8,301.1
		c-1.9,0.1-3.7-0.6-5-2c-1.2-1.8-1.8-3.9-1.7-6.1v-13.8h6.6v12.3c-0.1,1.1,0.2,2.1,0.8,3c0.5,0.7,1.4,1.1,2.2,1
		c0.9,0,1.8-0.2,2.5-0.7c0.9-0.6,1.7-1.4,2.2-2.4v-13.2h6.6v14.1c0,0.5,0.1,1,0.3,1.4c0.3,0.3,0.7,0.4,1.1,0.5v5.5
		c-0.5,0.1-1.1,0.2-1.6,0.2c-0.4,0.1-0.8,0.1-1.2,0.1c-2.3,0-3.7-0.9-4-2.7l-0.1-1.3c-0.9,1.4-2.2,2.5-3.7,3.1
		C107.2,300.8,105.5,301.2,103.8,301.1z M156.9,300.7h-6.6v-12.1c0.1-1.1-0.2-2.2-0.8-3.1c-0.5-0.6-1.2-1-2-1
		c-0.5,0-0.9,0.1-1.4,0.3c-0.5,0.2-0.9,0.5-1.2,0.8c-0.4,0.4-0.8,0.8-1.1,1.2c-0.3,0.5-0.6,1-0.7,1.5v12.3h-6.6v-12.1
		c0.1-1.1-0.2-2.2-0.8-3.1c-0.5-0.6-1.2-1-2-1c-1,0-1.9,0.4-2.6,1.1c-0.8,0.7-1.5,1.7-1.8,2.7v12.3H123v-21.5h5.9v3.6
		c0.8-1.3,1.9-2.3,3.2-3c1.5-0.7,3.1-1,4.8-1c0.8,0,1.6,0.1,2.3,0.3c0.6,0.2,1.2,0.5,1.8,0.9c0.5,0.4,0.9,0.8,1.2,1.4
		c0.3,0.5,0.5,1,0.6,1.6c0.8-1.3,1.9-2.3,3.2-3c1.4-0.8,3-1.1,4.6-1.1c1.1-0.1,2.3,0.2,3.3,0.8c0.8,0.5,1.5,1.2,2,2
		c0.5,0.8,0.8,1.7,0.9,2.6c0.2,0.9,0.2,1.8,0.2,2.8L156.9,300.7z M174.8,301.1c-1.5,0-3-0.3-4.3-1c-1.2-0.7-2.2-1.7-2.8-2.9v12.2
		h-6.6v-30.2h5.7v3.5c0.7-1.2,1.8-2.2,2.9-2.9c1.3-0.7,2.8-1,4.3-1c1.4,0,2.7,0.3,4,0.9c1.2,0.6,2.3,1.4,3.1,2.4
		c0.9,1,1.6,2.2,2.1,3.5c0.5,1.4,0.8,2.9,0.8,4.3c0,1.5-0.2,3-0.7,4.5c-0.4,1.3-1.1,2.5-1.9,3.6c-0.8,1-1.8,1.8-2.9,2.3
		C177.4,300.9,176.1,301.2,174.8,301.1z M172.6,295.6c0.7,0,1.3-0.1,1.9-0.5c0.6-0.3,1.1-0.8,1.6-1.3c0.4-0.5,0.8-1.1,1-1.8
		c0.2-0.7,0.4-1.5,0.4-2.2c0-0.7-0.1-1.5-0.4-2.2c-0.2-0.6-0.6-1.2-1-1.7c-0.5-0.5-1-0.9-1.6-1.1c-0.6-0.3-1.3-0.4-2-0.4
		c-0.9,0-1.8,0.3-2.6,0.8c-0.8,0.5-1.5,1.3-1.9,2.1v4.4c0.4,1.1,1.1,2,2,2.7C170.6,295.2,171.6,295.6,172.6,295.6L172.6,295.6z
		 M214.9,280.2c-0.3-0.2-0.5-0.4-0.9-0.6c-0.6-0.4-1.2-0.7-1.8-0.9c-0.8-0.3-1.6-0.6-2.4-0.9c-0.9-0.2-1.7-0.4-2.6-0.4
		c-2.4,0-3.6,0.8-3.6,2.4c0,0.4,0.1,0.9,0.4,1.2c0.3,0.4,0.7,0.7,1.1,0.9c0.6,0.3,1.3,0.5,1.9,0.7l2.7,0.7c1.3,0.3,2.5,0.8,3.8,1.3
		c1,0.4,2,1,2.8,1.7c0.8,0.6,1.4,1.5,1.8,2.4c0.5,1.1,0.7,2.3,0.6,3.4c0,1.4-0.3,2.9-0.9,4.2c-0.6,1.1-1.4,2-2.4,2.7
		c-1.1,0.7-2.2,1.2-3.5,1.5c-1.3,0.3-2.7,0.5-4.1,0.5c-1.1,0-2.2-0.1-3.3-0.2c-1.1-0.2-2.2-0.4-3.3-0.7c-1.1-0.3-2.1-0.7-3.1-1.1
		c-1-0.4-1.9-0.9-2.7-1.5l2.9-5.9c0.3,0.3,0.7,0.6,1.1,0.8c0.7,0.4,1.4,0.8,2.2,1.1c1,0.4,2,0.7,3,1c1.1,0.3,2.2,0.5,3.3,0.5
		c2.4,0,3.6-0.7,3.6-2.2c0-0.5-0.2-1-0.5-1.4c-0.4-0.4-0.9-0.7-1.5-0.9c-0.7-0.3-1.5-0.6-2.2-0.8l-2.8-0.8c-1.2-0.3-2.4-0.8-3.5-1.3
		c-0.9-0.4-1.7-1-2.5-1.7c-0.6-0.6-1.1-1.4-1.4-2.2c-0.3-0.9-0.5-1.9-0.4-2.9c0-1.4,0.3-2.8,0.9-4c0.5-1.1,1.3-2.2,2.3-3
		c1-0.8,2.2-1.5,3.4-1.8c1.3-0.4,2.7-0.6,4.1-0.6c1,0,2,0.1,3,0.3c1,0.2,1.9,0.4,2.8,0.7c0.9,0.3,1.7,0.6,2.5,1
		c0.8,0.4,1.5,0.8,2.2,1.1L214.9,280.2z M235.8,299.6c-1,0.4-2.1,0.8-3.1,1.1c-1.1,0.3-2.3,0.5-3.5,0.5c-0.8,0-1.6-0.1-2.3-0.3
		c-0.7-0.2-1.3-0.5-1.9-0.9c-0.6-0.5-1-1.1-1.3-1.8c-0.3-0.8-0.5-1.8-0.4-2.7v-11.2h-2.7v-5h2.7v-6.8h6.6v6.8h4.4v5h-4.4v9
		c-0.2,0.9,0.5,1.8,1.4,2c0.1,0,0.3,0,0.5,0c0.5,0,1-0.1,1.5-0.2c0.5-0.1,0.9-0.3,1.4-0.5L235.8,299.6z M244.4,301.1
		c-1,0-2-0.2-3-0.5c-0.9-0.3-1.6-0.8-2.3-1.4c-0.6-0.6-1.2-1.4-1.6-2.2c-0.4-0.9-0.6-1.8-0.6-2.7c0-1,0.2-2,0.6-2.9
		c0.5-0.9,1.1-1.6,1.9-2.2c0.9-0.7,1.9-1.2,2.9-1.5c1.2-0.4,2.5-0.5,3.7-0.5c0.9,0,1.8,0.1,2.6,0.2c0.8,0.1,1.5,0.3,2.2,0.6v-1
		c0-2.5-1.4-3.7-4.3-3.7c-1.1,0-2.3,0.2-3.4,0.6c-1.2,0.4-2.3,1-3.4,1.8l-1.9-4.1c1.4-0.9,2.9-1.6,4.4-2.1c1.6-0.5,3.2-0.7,4.9-0.7
		c3.2,0,5.8,0.8,7.5,2.3c1.8,1.5,2.7,3.8,2.7,6.7v5.5c0,0.5,0.1,1,0.3,1.4c0.3,0.3,0.7,0.4,1.1,0.5v5.5c-0.5,0.1-1,0.2-1.6,0.2
		c-0.4,0.1-0.8,0.1-1.3,0.1c-1,0.1-2-0.2-2.8-0.7c-0.6-0.5-1.1-1.2-1.2-2l-0.1-1c-0.9,1.2-2.1,2.2-3.4,2.8
		C247.3,300.8,245.9,301.2,244.4,301.1L244.4,301.1z M246.4,296.4c0.7,0,1.4-0.1,2-0.4c0.6-0.2,1.2-0.6,1.7-1
		c0.5-0.3,0.9-0.9,0.9-1.5v-2c-0.6-0.2-1.2-0.4-1.9-0.5c-0.6-0.1-1.2-0.2-1.8-0.2c-1.1,0-2.1,0.2-3,0.8c-1.2,0.8-1.5,2.4-0.7,3.6
		c0.1,0.2,0.3,0.4,0.5,0.5C244.7,296.2,245.5,296.5,246.4,296.4L246.4,296.4z M276,284.9c-1.5,0-2.9,0.3-4.3,0.8
		c-1.2,0.4-2.1,1.2-2.8,2.2v12.9h-6.5v-21.5h6v4.3c0.7-1.3,1.6-2.5,2.8-3.4c1.1-0.8,2.4-1.2,3.7-1.3h0.6c0.1,0,0.3,0,0.4,0
		L276,284.9z M292.7,299.6c-1,0.4-2.1,0.8-3.1,1.1c-1.1,0.3-2.3,0.5-3.5,0.5c-0.8,0-1.6-0.1-2.3-0.3c-0.7-0.2-1.3-0.5-1.9-0.9
		c-0.6-0.5-1-1.1-1.3-1.8c-0.3-0.8-0.5-1.8-0.5-2.7v-11.2h-2.7v-5h2.7v-6.8h6.5v6.8h4.3v5h-4.4v9c-0.2,0.9,0.5,1.8,1.4,2
		c0.1,0,0.3,0,0.5,0c0.5,0,1-0.1,1.5-0.2c0.5-0.1,0.9-0.3,1.4-0.5L292.7,299.6z M95.1,328.1c-0.3-0.2-0.5-0.4-0.9-0.6
		c-0.6-0.4-1.2-0.7-1.8-0.9c-0.8-0.3-1.6-0.6-2.4-0.9c-0.9-0.2-1.7-0.4-2.6-0.4c-2.4,0-3.6,0.8-3.6,2.4c0,0.4,0.1,0.9,0.4,1.2
		c0.3,0.4,0.7,0.7,1.2,0.9c0.6,0.3,1.3,0.5,1.9,0.7l2.7,0.7c1.3,0.3,2.5,0.8,3.8,1.3c1,0.4,2,1,2.8,1.7c0.8,0.6,1.4,1.5,1.8,2.4
		c0.5,1.1,0.7,2.3,0.7,3.4c0,1.4-0.3,2.9-0.9,4.2c-0.6,1.1-1.4,2-2.4,2.7c-1.1,0.7-2.3,1.2-3.5,1.5c-1.3,0.3-2.7,0.4-4,0.4
		c-1.1,0-2.2-0.1-3.3-0.2c-1.1-0.2-2.2-0.4-3.3-0.7c-1.1-0.3-2.1-0.7-3.1-1.1c-1-0.4-1.9-0.9-2.7-1.5l2.9-5.9
		c0.3,0.3,0.7,0.6,1.1,0.8c0.7,0.4,1.4,0.8,2.2,1.1c1,0.4,2,0.7,3,1c1.1,0.3,2.2,0.4,3.3,0.5c2.4,0,3.6-0.7,3.6-2.2
		c0-0.5-0.2-1-0.5-1.4c-0.4-0.4-0.9-0.7-1.5-0.9c-0.7-0.3-1.5-0.6-2.2-0.8l-2.8-0.8c-1.2-0.4-2.4-0.8-3.5-1.3
		c-0.9-0.4-1.7-1-2.5-1.7c-0.6-0.6-1.1-1.4-1.4-2.2c-0.3-0.9-0.5-1.9-0.4-2.9c0-1.4,0.3-2.8,0.9-4c0.5-1.1,1.3-2.1,2.3-2.9
		c1-0.8,2.2-1.5,3.4-1.8c1.3-0.4,2.7-0.6,4.1-0.6c1,0,2,0.1,3,0.3c1,0.2,1.9,0.4,2.8,0.7c0.9,0.3,1.7,0.6,2.5,1
		c0.8,0.4,1.5,0.8,2.2,1.2L95.1,328.1z M116.7,348.7l-5.6-8.6l-2.3,2.4v6.3h-6.6v-29.9h6.6v17.3l7.2-8.9h7l-7.7,9.2l8.4,12.2
		L116.7,348.7z M134.7,349.1c-1.7,0-3.3-0.3-4.9-0.9c-1.4-0.6-2.6-1.4-3.6-2.4c-1-1-1.7-2.2-2.2-3.5c-0.5-1.3-0.8-2.7-0.8-4.2
		c0-1.5,0.3-3,0.8-4.4c1-2.8,3.1-5,5.9-6.1c1.6-0.6,3.2-0.9,4.9-0.9c1.7,0,3.3,0.3,4.9,0.9c1.4,0.6,2.6,1.4,3.6,2.5
		c1,1,1.7,2.2,2.2,3.5c0.5,1.3,0.8,2.8,0.8,4.2c0,0.4,0,0.8,0,1.1c0,0.3-0.1,0.6-0.1,0.9h-15.9c0,1.3,0.6,2.5,1.6,3.3
		c0.9,0.7,2.1,1.1,3.2,1.1c1,0,1.9-0.2,2.7-0.7c0.8-0.4,1.5-1,1.8-1.9l5.6,1.5c-0.9,1.7-2.2,3.2-3.9,4.1
		C139.2,348.6,137,349.2,134.7,349.1z M139.3,335.9c-0.1-1.2-0.6-2.4-1.5-3.2c-1.8-1.6-4.5-1.6-6.3,0c-0.8,0.9-1.4,2-1.4,3.2
		L139.3,335.9z M162.9,347.5c-1,0.4-2.1,0.8-3.1,1.1c-1.1,0.3-2.3,0.5-3.5,0.5c-0.8,0-1.6-0.1-2.3-0.3c-0.7-0.2-1.3-0.5-1.9-0.9
		c-0.6-0.5-1-1.1-1.3-1.8c-0.3-0.8-0.5-1.8-0.4-2.7v-11.2h-2.7v-5h2.7v-6.8h6.6v6.8h4.4v5h-4.4v9c-0.2,0.9,0.5,1.8,1.4,2
		c0.1,0,0.3,0,0.5,0c0.5,0,1-0.1,1.5-0.2c0.5-0.1,0.9-0.3,1.4-0.5L162.9,347.5z M163.7,337.9c0-1.4,0.3-2.9,0.8-4.2
		c0.5-1.3,1.3-2.5,2.2-3.6c1-1.1,2.2-1.9,3.6-2.5c1.6-0.6,3.2-0.9,4.9-0.9c2.2-0.1,4.4,0.5,6.3,1.6c1.6,1,3,2.4,3.8,4.1l-6.4,1.9
		c-0.8-1.3-2.2-2.1-3.7-2c-1.3,0-2.6,0.5-3.4,1.5c-0.9,1.1-1.4,2.6-1.4,4c0,0.8,0.1,1.6,0.4,2.3c0.2,0.6,0.6,1.2,1,1.8
		c0.4,0.5,0.9,0.9,1.5,1.1c1.3,0.6,2.9,0.5,4.1-0.2c0.6-0.4,1.2-0.9,1.5-1.5l6.4,2c-0.8,1.7-2.2,3.1-3.8,4.1
		c-1.9,1.1-4.1,1.7-6.3,1.6c-1.7,0-3.3-0.3-4.9-0.9c-1.4-0.6-2.6-1.4-3.6-2.5c-1-1-1.7-2.2-2.2-3.6
		C163.9,340.9,163.6,339.4,163.7,337.9L163.7,337.9z M209,348.7h-6.6v-12.1c0.1-1.1-0.2-2.2-0.8-3.1c-0.6-0.7-1.4-1-2.2-1
		c-0.4,0-0.9,0.1-1.3,0.3c-0.5,0.2-0.9,0.5-1.3,0.8c-0.4,0.3-0.8,0.7-1.1,1.2c-0.4,0.5-0.6,1-0.8,1.5v12.3h-6.6v-29.9h6.6v12
		c0.8-1.2,1.8-2.3,3.1-3c1.3-0.7,2.8-1.1,4.3-1.1c1.2-0.1,2.4,0.2,3.5,0.8c0.8,0.4,1.5,1.1,2,1.9c0.5,0.8,0.9,1.7,1,2.6
		c0.2,0.9,0.2,1.9,0.2,2.8L209,348.7z"/>
</g>
<g id="LOGO">
	<g id="Group-71">
		<g id="Vector-62">
			<path id="path4_fill" class="st5" d="M100.7,646.3c0.1,0.2,0.3,0.4,0.6,0.5c0.2,0.1,0.5,0.2,0.8,0.3c0.3,0.1,0.6,0.1,0.9,0.1
				c0.3,0,0.5,0,0.8,0c0.3,0,0.5-0.1,0.7-0.2c0.2-0.1,0.4-0.2,0.6-0.4c0.2-0.2,0.2-0.4,0.2-0.7c0-0.2,0-0.3-0.1-0.5
				c-0.1-0.2-0.2-0.3-0.3-0.4c-0.4-0.2-0.7-0.4-1.1-0.5c-0.5-0.1-0.9-0.2-1.5-0.3c-0.5-0.1-1-0.2-1.4-0.4c-0.4-0.2-0.8-0.4-1.1-0.8
				c-0.3-0.4-0.5-0.9-0.4-1.3c0-0.4,0.1-0.8,0.3-1.2c0.2-0.3,0.5-0.6,0.8-0.8c0.3-0.2,0.7-0.4,1.1-0.5c0.4-0.1,0.8-0.1,1.2-0.1
				c0.5,0,1,0,1.5,0.1c0.4,0.1,0.8,0.2,1.2,0.5c0.3,0.2,0.6,0.5,0.8,0.9c0.2,0.4,0.3,0.9,0.4,1.3H105c0-0.3-0.1-0.5-0.2-0.7
				c-0.1-0.2-0.3-0.3-0.5-0.5c-0.2-0.1-0.4-0.2-0.7-0.2c-0.2-0.1-0.5-0.1-0.8-0.1c-0.2,0-0.5,0-0.7,0c-0.2,0-0.4,0.1-0.6,0.2
				c-0.2,0.1-0.3,0.2-0.5,0.3c-0.1,0.2-0.2,0.4-0.2,0.6c0,0.1,0,0.2,0.1,0.3c0,0.1,0.1,0.2,0.2,0.3c0.2,0.2,0.5,0.3,0.7,0.4
				c0.3,0.1,0.7,0.2,1,0.3l1.1,0.2c0.4,0.1,0.7,0.2,1.1,0.3c0.4,0.1,0.7,0.3,1,0.5c0.3,0.2,0.5,0.4,0.7,0.7c0.2,0.3,0.3,0.7,0.3,1.1
				c0,0.5-0.1,0.9-0.3,1.3c-0.2,0.4-0.5,0.7-0.9,0.9c-0.4,0.2-0.8,0.4-1.3,0.5c-0.5,0.1-0.9,0.1-1.4,0.1c-0.5,0-1-0.1-1.5-0.2
				c-0.4-0.1-0.9-0.3-1.2-0.5c-0.4-0.2-0.7-0.6-0.9-0.9c-0.2-0.4-0.4-0.9-0.4-1.4h1.5C100.6,645.7,100.6,646,100.7,646.3z"/>
		</g>
		<g id="Vector-63">
			<path id="path5_fill" class="st5" d="M110.2,639.4h-1.5v8.9h1.5V639.4z"/>
		</g>
		<g id="Vector-64">
			<path id="path6_fill" class="st5" d="M116.6,639.4v1.3h-1.9v5.5c0,0.1,0,0.3,0,0.4c0,0.1,0.1,0.2,0.2,0.2
				c0.1,0.1,0.2,0.1,0.3,0.1c0.2,0,0.4,0,0.6,0h0.7v1.3h-1.2c-0.3,0-0.7,0-1-0.1c-0.2,0-0.5-0.1-0.7-0.3c-0.2-0.2-0.3-0.4-0.4-0.6
				c-0.1-0.3-0.1-0.7-0.1-1v-5.7h-1.6v-1.3h1.6v-2.7h1.5v2.7L116.6,639.4z"/>
		</g>
		<g id="Vector-65">
			<path id="path7_fill" class="st5" d="M124.8,647.7c-0.8,0.5-1.7,0.8-2.6,0.8c-0.7,0-1.3-0.1-1.9-0.3c-0.5-0.2-1-0.6-1.4-1
				c-0.4-0.4-0.7-0.9-0.8-1.5c-0.2-0.6-0.3-1.2-0.3-1.9c0-0.6,0.1-1.3,0.3-1.9c0.2-0.5,0.5-1,0.9-1.5c0.4-0.4,0.9-0.8,1.4-1
				c0.6-0.2,1.2-0.3,1.8-0.3c1.4-0.1,2.6,0.6,3.4,1.7c0.3,0.5,0.6,1.1,0.7,1.7c0.1,0.6,0.2,1.1,0.2,1.7h-7c0,0.4,0,0.8,0.1,1.1
				c0.1,0.3,0.3,0.7,0.5,0.9c0.3,0.3,0.6,0.5,0.9,0.6c0.4,0.2,0.9,0.3,1.3,0.2c0.6,0,1.1-0.1,1.6-0.4c0.4-0.3,0.7-0.8,0.8-1.3h1.5
				C126,646.3,125.6,647.1,124.8,647.7z M124.5,642c-0.1-0.3-0.3-0.6-0.6-0.8c-0.2-0.2-0.5-0.4-0.8-0.5c-0.3-0.1-0.7-0.2-1.1-0.2
				c-0.4,0-0.7,0.1-1.1,0.2c-0.3,0.1-0.6,0.3-0.8,0.5c-0.2,0.2-0.4,0.5-0.5,0.8c-0.1,0.3-0.2,0.7-0.2,1h5.3
				C124.7,642.6,124.6,642.3,124.5,642L124.5,642z"/>
		</g>
		<g id="Vector-66">
			<path id="path8_fill" class="st5" d="M129.5,639.4v1.2l0,0c0.3-0.5,0.7-0.9,1.2-1.1c0.6-0.2,1.2-0.3,1.8-0.3
				c0.6,0,1.3,0.1,1.9,0.4c0.5,0.2,1,0.6,1.3,1c0.4,0.4,0.6,0.9,0.8,1.5c0.2,0.6,0.3,1.2,0.3,1.8c0,0.6-0.1,1.2-0.3,1.8
				c-0.2,0.5-0.4,1-0.8,1.5c-0.4,0.4-0.8,0.8-1.3,1c-0.6,0.3-1.2,0.4-1.9,0.4c-0.3,0-0.5,0-0.8-0.1c-0.3,0-0.6-0.1-0.8-0.2
				c-0.3-0.1-0.5-0.2-0.8-0.4c-0.2-0.2-0.5-0.4-0.6-0.7l0,0v4.6H128v-12.3H129.5z M135,642.5c-0.1-0.4-0.3-0.7-0.5-1.1
				c-0.2-0.3-0.5-0.6-0.9-0.7c-0.4-0.2-0.8-0.3-1.3-0.3c-0.5,0-0.9,0.1-1.3,0.3c-0.3,0.2-0.6,0.4-0.9,0.8c-0.2,0.3-0.4,0.7-0.5,1.1
				c-0.1,0.4-0.2,0.8-0.1,1.2c0,0.4,0.1,0.9,0.2,1.3c0.1,0.4,0.3,0.8,0.5,1.1c0.2,0.3,0.6,0.6,0.9,0.8c0.4,0.2,0.9,0.3,1.4,0.3
				c0.5,0,0.9-0.1,1.3-0.3c0.3-0.2,0.6-0.4,0.9-0.8c0.2-0.3,0.4-0.7,0.4-1.1c0.1-0.4,0.1-0.8,0.1-1.3
				C135.1,643.3,135.1,642.9,135,642.5L135,642.5z"/>
		</g>
		<g id="Vector-67">
			<path id="path9_fill" class="st5" d="M138.4,642c0.4-1.1,1.2-2,2.3-2.5c1.3-0.5,2.6-0.5,3.9,0c1.1,0.4,1.9,1.4,2.3,2.5
				c0.2,0.6,0.3,1.2,0.3,1.8c0,0.6-0.1,1.2-0.3,1.8c-0.2,0.5-0.5,1-0.9,1.5c-0.4,0.4-0.9,0.8-1.4,1c-1.3,0.5-2.6,0.5-3.9,0
				c-0.5-0.2-1-0.6-1.4-1c-0.4-0.4-0.7-0.9-0.9-1.5c-0.2-0.6-0.3-1.2-0.3-1.8C138.1,643.2,138.2,642.6,138.4,642z M139.9,645.3
				c0.1,0.4,0.3,0.7,0.6,1c0.3,0.3,0.6,0.5,0.9,0.7c0.7,0.3,1.5,0.3,2.2,0c0.4-0.1,0.7-0.4,0.9-0.7c0.3-0.3,0.5-0.6,0.6-1
				c0.3-0.9,0.3-1.9,0-2.9c-0.1-0.4-0.3-0.8-0.6-1.1c-0.3-0.3-0.6-0.5-0.9-0.7c-0.7-0.3-1.5-0.3-2.2,0c-0.4,0.1-0.7,0.4-0.9,0.7
				c-0.3,0.3-0.5,0.7-0.6,1.1C139.6,643.3,139.6,644.3,139.9,645.3L139.9,645.3z"/>
		</g>
		<g id="Vector-68">
			<path id="path10_fill" class="st5" d="M150.6,639.4H149v8.9h1.5L150.6,639.4z"/>
		</g>
		<g id="Vector-69">
			<path id="path11_fill" class="st5" d="M154.4,639.4v1.4l0,0c0.6-1.1,1.8-1.7,3-1.6c0.5,0,1,0.1,1.5,0.2c0.4,0.1,0.7,0.4,1,0.7
				c0.3,0.3,0.4,0.6,0.5,1c0.1,0.4,0.2,0.9,0.1,1.3v5.8h-1.5v-6c0-0.2,0-0.5-0.1-0.7c-0.1-0.2-0.2-0.4-0.4-0.6
				c-0.2-0.2-0.4-0.3-0.6-0.4c-0.2-0.1-0.5-0.1-0.7-0.1c-0.4,0-0.8,0.1-1.2,0.2c-0.3,0.1-0.6,0.3-0.9,0.6c-0.2,0.3-0.4,0.6-0.5,0.9
				c-0.1,0.4-0.2,0.7-0.2,1.1v5h-1.5v-8.9L154.4,639.4z"/>
		</g>
		<g id="Vector-70">
			<path id="path12_fill" class="st5" d="M166.9,639.4v1.3h-1.9v5.5c0,0.1,0,0.3,0,0.4c0,0.1,0.1,0.2,0.2,0.2
				c0.1,0.1,0.2,0.1,0.4,0.1c0.2,0,0.4,0,0.6,0h0.7v1.3h-1.2c-0.3,0-0.7,0-1-0.1c-0.2,0-0.5-0.1-0.7-0.3c-0.2-0.2-0.3-0.4-0.4-0.6
				c-0.1-0.3-0.1-0.7-0.1-1v-5.7H162v-1.3h1.6v-2.7h1.5v2.7L166.9,639.4z"/>
		</g>
		<g id="Vector-71">
			<path id="path13_fill" class="st5" d="M78.4,642.8l1.4,1.3l4.5,4.1l1.9-1.8c0.2-0.2,0.2-0.6,0-0.8l-1.8-1.5l-1.9-1.8
				c-0.2-0.2-0.2-0.6,0-0.9l5.1-4.8l-2.3-2.2l-5.5,5.2l-1.4,1.3c-0.1,0.1-0.2,0.3-0.3,0.4c-0.1,0.3-0.1,0.7,0,1
				C78.2,642.5,78.3,642.7,78.4,642.8z"/>
		</g>
		<g id="Vector-72">
			<path id="path14_fill" class="st5" d="M93.7,645.1l-1.4-1.3l-4.5-4.1l-1.9,1.8c-0.2,0.2-0.2,0.6,0,0.8l1.8,1.5l1.9,1.8
				c0.2,0.2,0.2,0.6,0,0.9l-5.1,4.8l2.3,2.2l5.5-5.2l1.4-1.3c0.1-0.1,0.2-0.3,0.3-0.4c0.1-0.3,0.1-0.7,0-1
				C93.9,645.4,93.8,645.3,93.7,645.1z"/>
		</g>
		<g id="Vector-73">
			<path id="path15_fill" class="st5" d="M109.4,638.4c0.5,0,0.8-0.4,0.8-0.9c0-0.5-0.4-0.8-0.9-0.8c-0.5,0-0.8,0.4-0.8,0.8
				C108.6,638,108.9,638.4,109.4,638.4C109.4,638.4,109.4,638.4,109.4,638.4z"/>
		</g>
		<g id="Vector-74">
			<path id="path16_fill" class="st5" d="M149.8,638.4c0.5,0,0.8-0.4,0.8-0.9c0-0.5-0.4-0.8-0.9-0.8c-0.5,0-0.8,0.4-0.8,0.8
				C148.9,638,149.3,638.4,149.8,638.4C149.8,638.4,149.8,638.4,149.8,638.4z"/>
		</g>
	</g>
</g>
<g id="Frame">
	<g id="Ellipse">
		<path id="path81_fill" d="M463.2,122c0,1.8-1.5,3.3-3.3,3.3s-3.3-1.5-3.3-3.3s1.5-3.3,3.3-3.3l0,0
			C461.7,118.7,463.2,120.2,463.2,122z"/>
	</g>
	<g id="Ellipse-2">
		<path id="path81_fill-2" d="M463.2,66.8c0,1.8-1.5,3.3-3.3,3.3s-3.3-1.5-3.3-3.3s1.5-3.3,3.3-3.3l0,0
			C461.7,63.5,463.2,65,463.2,66.8z"/>
	</g>
	<g id="_2017">
		<path id="path2_fill" d="M443.3,138.9c0.8-0.7,1.4-1.4,2-2.2c0.4-0.5,0.6-1.1,0.6-1.8c0-0.6-0.2-1.2-0.7-1.6
			c-0.5-0.4-1.1-0.6-1.8-0.6c-0.6,0-1.1,0.1-1.6,0.4c-0.6,0.3-1,0.7-1.3,1.3c0,0.1-0.1,0.1-0.2,0.1c-0.1,0-0.1,0-0.2-0.1l-0.7-0.4
			c-0.1,0-0.1-0.1-0.1-0.2c0-0.1,0-0.1,0.1-0.2c0.5-0.7,1.1-1.3,1.8-1.6c0.7-0.4,1.5-0.6,2.4-0.5c0.7,0,1.4,0.1,2,0.4
			c0.6,0.2,1.1,0.7,1.4,1.2c0.4,0.6,0.6,1.2,0.5,1.9c0,0.7-0.2,1.4-0.6,2.1c-0.6,0.9-1.3,1.7-2.1,2.4l-3.4,3.2c0,0-0.1,0.1-0.1,0.1
			c0,0.1,0.1,0.1,0.2,0.1h6c0.1,0,0.1,0,0.2,0.1c0,0,0.1,0.1,0.1,0.1v1c0,0.1-0.1,0.2-0.2,0.2h-7.9c-0.1,0-0.2,0-0.3-0.1
			c0,0,0-0.1,0-0.1v-0.7c0-0.1,0-0.2,0.1-0.3c0.1-0.1,0.2-0.3,0.4-0.4L443.3,138.9z M454.4,131.4c0.9,0,1.7,0.2,2.4,0.7
			c0.8,0.6,1.3,1.3,1.7,2.2c0.8,2.3,0.8,4.8,0,7c-0.3,0.9-0.9,1.7-1.7,2.2c-0.7,0.5-1.6,0.8-2.4,0.7c-0.9,0-1.7-0.2-2.4-0.7
			c-0.8-0.6-1.3-1.3-1.7-2.2c-0.8-2.3-0.8-4.8,0-7c0.3-0.9,0.9-1.7,1.7-2.2C452.7,131.7,453.6,131.4,454.4,131.4L454.4,131.4z
			 M454.4,143.1c2,0,3-1.7,3-5.2c0.1-1.4-0.2-2.8-0.8-4c-0.4-0.8-1.3-1.3-2.2-1.3c-0.9,0-1.8,0.5-2.3,1.3c-0.6,1.2-0.9,2.6-0.8,4
			c-0.1,1.4,0.2,2.7,0.8,3.9C452.7,142.7,453.5,143.1,454.4,143.1z M467.3,142.9c0.1,0,0.2,0.1,0.2,0.2v1c0,0,0,0.1-0.1,0.1
			c0,0-0.1,0.1-0.1,0.1h-6c-0.1,0-0.2-0.1-0.2-0.2v-1c0-0.1,0.1-0.2,0.2-0.2h2.1c0.1,0,0.1,0,0.1-0.1v-9.3c0-0.1-0.1-0.2-0.2-0.1
			l-2.1,0.8l0,0l0,0c-0.1,0-0.2-0.1-0.2-0.2v-0.7c0-0.1,0-0.1,0-0.2c0,0,0.1-0.1,0.1-0.1l2.5-1.3c0.2-0.1,0.3-0.1,0.5-0.1h0.7
			c0.1,0,0.2,0.1,0.2,0.2v11c0,0.1,0,0.1,0.1,0.1L467.3,142.9z M477.4,131.6c0.1,0,0.1,0,0.2,0.1c0,0,0.1,0.1,0.1,0.1v0.6
			c0,0.2-0.1,0.4-0.2,0.6c-0.8,1.2-1.5,2.4-2.1,3.7c-0.6,1.3-1.2,2.7-1.7,4c-0.4,1-0.7,2-0.8,3.1c0,0.2-0.1,0.3-0.3,0.3h-1.3
			c-0.1,0-0.1,0-0.2-0.1c0-0.1,0-0.2,0-0.2c0.4-1.7,1-3.4,1.8-5c0.9-2,1.9-3.9,3.1-5.7c0,0,0-0.1,0.1-0.2c0-0.1-0.1-0.1-0.2-0.1
			h-6.6c-0.1,0-0.2-0.1-0.2-0.2l0.1-1c0-0.1,0-0.1,0.1-0.1c0.1,0,0.1,0,0.2,0L477.4,131.6z"/>
	</g>
	<g id="Line">
		<path id="path3_stroke" class="st6" d="M460.2,119.2V0h-0.6v119.2H460.2z"/>
	</g>
	<g id="Rectangle_11">
		<path id="path82_fill" class="st0" d="M383.7,32.8h145.8v30.5H383.7V32.8z"/>
	</g>
	<g id="Volume_1">
		<path id="path83_fill" d="M434.2,40.5c0.1,0,0.1,0,0.2,0.1c0,0,0,0.1,0,0.2l-4.3,12.1c0,0.2-0.2,0.3-0.4,0.3h-1.2
			c-0.2,0-0.4-0.1-0.4-0.2l-4.2-12.1c0,0,0-0.1,0-0.1c0-0.1,0.1-0.2,0.2-0.2h1.2c0.1,0,0.2,0.1,0.3,0.2l3.5,10.3
			c0,0.1,0.1,0.2,0.1,0.2s0.1-0.1,0.1-0.2l3.6-10.3c0-0.1,0.1-0.2,0.3-0.2L434.2,40.5z M439.2,53.3c-0.8,0-1.6-0.2-2.3-0.6
			c-0.6-0.4-1.1-1-1.5-1.6c-0.7-1.5-0.7-3.3,0-4.8c0.7-1.4,2.2-2.3,3.8-2.3c0.8,0,1.6,0.2,2.2,0.6c0.6,0.4,1.2,1,1.5,1.7
			c0.4,0.8,0.6,1.6,0.5,2.4c0,0.8-0.2,1.7-0.5,2.4c-0.3,0.7-0.9,1.3-1.5,1.6C440.8,53.1,440,53.3,439.2,53.3z M439.2,52.2
			c0.8,0,1.6-0.3,2.1-1c0.5-0.8,0.8-1.7,0.7-2.7c0.1-0.9-0.2-1.9-0.7-2.6c-0.5-0.6-1.2-1-2-1c-0.8,0-1.6,0.3-2.1,1
			c-0.5,0.8-0.8,1.7-0.7,2.6c-0.1,0.9,0.2,1.9,0.7,2.6C437.7,51.9,438.5,52.3,439.2,52.2L439.2,52.2z M447.1,52.8
			c0,0.1,0,0.2-0.1,0.2c-0.1,0-0.2,0.1-0.2,0.1h-0.9c-0.1,0-0.1,0-0.2-0.1c0-0.1-0.1-0.1-0.1-0.2V40.8c0-0.2,0.1-0.2,0.2-0.2h1
			c0.1,0,0.2,0.1,0.2,0.2L447.1,52.8z M452.7,52.2c0.5,0,0.9-0.1,1.4-0.4c0.5-0.3,1-0.7,1.4-1.1v-6.3c0-0.2,0.1-0.2,0.3-0.2h0.9
			c0.1,0,0.2,0.1,0.2,0.2c0,0,0,0,0,0.1v8.6c0,0.1-0.1,0.2-0.2,0.2h-1c-0.1,0-0.2,0-0.2-0.1c0,0,0,0,0,0v-1c0-0.1-0.1-0.2-0.2-0.1
			c-0.5,0.4-1,0.8-1.6,1.1c-0.5,0.2-1,0.3-1.5,0.3c-0.7,0-1.4-0.2-2-0.7c-0.5-0.5-0.8-1.2-0.7-1.9v-6.3c0-0.1,0.1-0.2,0.2-0.3
			c0,0,0,0,0.1,0h1c0.1,0,0.2,0.1,0.2,0.2v6c0,0.5,0.1,1,0.5,1.4C451.8,52,452.3,52.2,452.7,52.2L452.7,52.2z M459.8,53.2
			c-0.2,0-0.2-0.1-0.2-0.2v-8.6c0-0.1,0.1-0.2,0.2-0.2h1c0.1,0,0.2,0.1,0.2,0.2v1c0,0.1,0.1,0.2,0.2,0.1c0.5-0.4,1-0.8,1.6-1.1
			c0.5-0.2,1-0.3,1.5-0.3c0.6,0,1.1,0.1,1.6,0.4c0.4,0.3,0.7,0.6,0.8,1.1c0,0,0,0.1,0.1,0.1c0.1,0,0.1,0,0.2-0.1
			c0.5-0.4,1-0.8,1.6-1.1c0.5-0.2,1-0.4,1.5-0.4c1.3-0.1,2.5,0.9,2.6,2.2c0,0.1,0,0.3,0,0.4v6.3c0,0.2-0.1,0.3-0.3,0.3h-1
			c-0.1,0-0.2-0.1-0.2-0.2c0,0,0,0,0-0.1v-6.1c0-0.5-0.1-0.9-0.4-1.3c-0.3-0.3-0.8-0.5-1.2-0.5c-0.4,0-0.9,0.1-1.3,0.3
			c-0.4,0.2-0.8,0.5-1.2,0.8c-0.1,0.1-0.1,0.2-0.1,0.3c0,0.1-0.1,0.2-0.1,0.3v6.1c0,0.2-0.1,0.3-0.3,0.3h-1c-0.1,0-0.2-0.1-0.2-0.2
			c0,0,0,0,0-0.1v-6.1c0-1.2-0.5-1.8-1.6-1.8c-0.4,0-0.9,0.1-1.3,0.3c-0.5,0.3-1,0.7-1.4,1.1v6.4c0,0.1,0,0.1-0.1,0.2
			c-0.1,0-0.1,0.1-0.2,0.1L459.8,53.2z M475.9,49.2c0,0.5,0.1,1,0.4,1.5c0.3,0.5,0.6,0.8,1.1,1.1c0.4,0.3,1,0.4,1.5,0.4
			c1.1,0,2.1-0.5,2.7-1.4c0,0,0.1-0.1,0.1-0.1c0,0,0.1,0,0.1,0l0.7,0.4c0.1,0.1,0.1,0.1,0,0.2c-0.4,0.6-0.9,1.1-1.6,1.5
			c-0.7,0.3-1.5,0.5-2.2,0.5c-0.8,0-1.5-0.2-2.2-0.6c-0.7-0.4-1.2-0.9-1.5-1.6c-0.4-0.7-0.6-1.6-0.5-2.4c0-0.9,0.2-1.7,0.6-2.5
			c0.3-0.7,0.9-1.3,1.5-1.7c0.7-0.4,1.4-0.6,2.2-0.6c0.8,0,1.5,0.2,2.1,0.5c0.6,0.4,1.2,0.9,1.5,1.6c0.4,0.8,0.5,1.6,0.5,2.5v0.1
			c0,0.1,0,0.2-0.1,0.2c-0.1,0.1-0.1,0.1-0.2,0.1h-6.5C476,48.9,475.9,49,475.9,49.2L475.9,49.2z M481.1,48c0.1,0,0.2,0,0.2,0
			c0-0.1,0.1-0.1,0.1-0.2c0-0.5-0.1-0.9-0.3-1.4c-0.2-0.4-0.5-0.8-0.9-1c-0.4-0.3-0.9-0.4-1.4-0.4c-0.5,0-1,0.2-1.5,0.4
			c-0.4,0.3-0.8,0.6-1,1c-0.2,0.5-0.3,1-0.3,1.5L481.1,48z M494.2,51.9c0.1,0,0.2,0.1,0.2,0.2v1c0,0,0,0.1-0.1,0.1
			c0,0-0.1,0.1-0.1,0.1h-6c-0.1,0-0.2-0.1-0.2-0.2v-1c0-0.1,0.1-0.2,0.2-0.2h2.1c0.1,0,0.1,0,0.1-0.1v-9.3c0-0.1-0.1-0.2-0.2-0.1
			l-2.1,0.8l0,0l0,0c-0.1,0-0.2-0.1-0.2-0.2v-0.7c0-0.1,0-0.1,0-0.2c0,0,0.1-0.1,0.1-0.1l2.5-1.3c0.2-0.1,0.3-0.1,0.5-0.1h0.7
			c0.1,0,0.2,0.1,0.2,0.2v11c0,0.1,0,0.1,0.1,0.1L494.2,51.9z"/>
	</g>
	<g id="Ellipse-3">
		<path id="path81_fill-3" d="M463.2,31.6c0,1.8-1.5,3.3-3.3,3.3s-3.3-1.5-3.3-3.3c0-1.8,1.5-3.3,3.3-3.3l0,0
			C461.7,28.3,463.2,29.8,463.2,31.6z"/>
	</g>
</g>
<title>cover</title>
</svg>
