<svg xmlns="http://www.w3.org/2000/svg" width="345" height="76" viewBox="0 0 345 76">
  <title>
    SitePoint Logo - gray
  </title>
  <g fill="#4A4A4A">
    <path d="M87.96 46.85c.548.872 1.304 1.593 2.2 2.1.956.536 1.993.91 3.07 1.11 1.163.23 2.345.343 3.53.34.98-.002 1.96-.07 2.93-.2.972-.12 1.924-.368 2.83-.74.834-.34 1.567-.887 2.13-1.59.58-.765.878-1.71.84-2.67.066-1.36-.602-2.65-1.75-3.38-1.35-.845-2.825-1.473-4.37-1.86-1.747-.473-3.643-.9-5.69-1.28-1.928-.36-3.817-.905-5.64-1.63-1.656-.64-3.147-1.644-4.36-2.94-1.234-1.47-1.857-3.355-1.74-5.27-.045-1.597.38-3.172 1.22-4.53.8-1.25 1.875-2.303 3.14-3.08 1.34-.814 2.802-1.408 4.33-1.76 1.565-.377 3.17-.568 4.78-.57 1.9-.013 3.794.158 5.66.51 1.62.3 3.168.896 4.57 1.76 1.33.837 2.426 2 3.18 3.38.854 1.644 1.333 3.458 1.4 5.31h-5.93c-.05-1-.365-1.97-.91-2.81-.52-.742-1.205-1.354-2-1.79-.817-.466-1.7-.804-2.62-1-.953-.202-1.925-.303-2.9-.3-.9 0-1.8.067-2.69.2-.856.12-1.69.36-2.48.71-.702.305-1.325.767-1.82 1.35-.487.627-.736 1.407-.7 2.2-.024.943.372 1.848 1.08 2.47.82.713 1.766 1.266 2.79 1.63 1.216.46 2.467.82 3.74 1.08 1.4.293 2.797.597 4.19.91 1.393.313 2.85.697 4.37 1.15 1.337.41 2.607 1.014 3.77 1.79 1.078.727 1.983 1.683 2.65 2.8.71 1.28 1.056 2.728 1 4.19.072 1.852-.4 3.684-1.36 5.27-.902 1.393-2.122 2.55-3.56 3.38-1.55.885-3.24 1.49-5 1.79-1.807.336-3.642.507-5.48.51-1.927.008-3.848-.196-5.73-.61-1.716-.365-3.35-1.043-4.82-2-1.397-.926-2.547-2.18-3.35-3.65-.89-1.702-1.37-3.59-1.4-5.51h5.98c.008 1.14.326 2.257.92 3.23zm30.72-27.14h5.94v34.94h-5.94zm30.59 0v5.07h-7.23v21.7c-.016.545.04 1.09.17 1.62.1.386.333.723.66.95.41.254.878.405 1.36.44.754.075 1.512.108 2.27.1h2.72v5.07h-4.54c-1.323.02-2.645-.08-3.95-.3-.96-.146-1.872-.527-2.65-1.11-.716-.602-1.237-1.402-1.5-2.3-.364-1.274-.53-2.596-.49-3.92V24.78h-6.05v-5.07h6.14V9.24h5.86v10.47h7.23zm32.12 32.71c-2.982 2.078-6.558 3.13-10.19 3-2.57.06-5.123-.398-7.51-1.35-2.04-.845-3.865-2.137-5.34-3.78-1.48-1.686-2.588-3.666-3.25-5.81-.744-2.39-1.155-4.87-1.22-7.37-.03-2.49.398-4.964 1.26-7.3.79-2.126 1.99-4.076 3.53-5.74 1.506-1.632 3.334-2.933 5.37-3.82 2.152-.917 4.47-1.376 6.81-1.35 2.793-.105 5.562.563 8 1.93 2.052 1.222 3.797 2.898 5.1 4.9 1.278 1.98 2.177 4.18 2.65 6.49.478 2.196.68 4.444.6 6.69h-27c-.054 1.474.135 2.947.56 4.36.395 1.347 1.078 2.592 2 3.65.984 1.097 2.2 1.96 3.56 2.53 1.616.667 3.353.99 5.1.95 2.186.094 4.346-.497 6.18-1.69 1.667-1.237 2.798-3.066 3.16-5.11h5.86c-.553 3.5-2.424 6.656-5.23 8.82zm-1.43-22.44c-.508-1.178-1.242-2.244-2.16-3.14-.93-.894-2.018-1.606-3.21-2.1-1.294-.53-2.682-.795-4.08-.78-1.422-.02-2.833.246-4.15.78-1.192.49-2.274 1.214-3.18 2.13-.89.906-1.602 1.97-2.1 3.14-.517 1.213-.825 2.504-.91 3.82h20.74c-.092-1.325-.414-2.625-.95-3.84v-.01zm19.51-10.27v4.73h.14c.966-1.925 2.607-3.427 4.61-4.22 2.192-.898 4.54-1.347 6.91-1.32 2.514-.058 5.01.452 7.3 1.49 2 .93 3.768 2.297 5.17 4 1.398 1.735 2.453 3.72 3.11 5.85.69 2.27 1.026 4.63 1 7 .016 2.37-.32 4.73-1 7-.623 2.114-1.668 4.08-3.07 5.78-1.406 1.672-3.174 3.002-5.17 3.89-2.28.988-4.746 1.473-7.23 1.42-1.006-.008-2.01-.098-3-.27-1.11-.184-2.2-.48-3.25-.88-1.05-.394-2.04-.925-2.95-1.58-.962-.705-1.78-1.587-2.41-2.6h-.14v18h-5.95V19.71h5.93zm21.33 12.4c-.407-1.497-1.085-2.907-2-4.16-.922-1.225-2.117-2.218-3.49-2.9-1.557-.752-3.27-1.122-5-1.08-1.77-.054-3.524.342-5.1 1.15-1.353.727-2.522 1.753-3.42 3-.9 1.274-1.55 2.705-1.92 4.22-.393 1.57-.59 3.182-.59 4.8-.007 1.687.204 3.368.63 5 .386 1.523 1.065 2.957 2 4.22.935 1.24 2.143 2.245 3.53 2.94 1.633.783 3.43 1.164 5.24 1.11 1.78.06 3.546-.335 5.13-1.15 1.332-.72 2.47-1.748 3.32-3 .863-1.318 1.48-2.782 1.82-4.32.375-1.64.562-3.318.56-5-.005-1.635-.24-3.26-.7-4.83h-.01zm13.1-2.09c.7-2.15 1.84-4.128 3.35-5.81 1.538-1.68 3.42-3.006 5.52-3.89 4.862-1.892 10.258-1.892 15.12 0 2.083.89 3.952 2.217 5.48 3.89 1.51 1.682 2.65 3.66 3.35 5.81.756 2.324 1.13 4.756 1.11 7.2.024 2.435-.35 4.857-1.11 7.17-.705 2.138-1.846 4.106-3.35 5.78-1.524 1.668-3.394 2.982-5.48 3.85-4.87 1.844-10.25 1.844-15.12 0-2.1-.86-3.986-2.176-5.52-3.85-1.505-1.674-2.645-3.642-3.35-5.78-.762-2.313-1.14-4.735-1.12-7.17-.02-2.445.36-4.876 1.12-7.2zm6 12.84c.51 1.524 1.332 2.927 2.41 4.12 1.005 1.093 2.233 1.96 3.6 2.54 2.792 1.17 5.938 1.17 8.73 0 1.367-.58 2.595-1.446 3.6-2.54 1.077-1.194 1.898-2.596 2.41-4.12 1.163-3.674 1.163-7.616 0-11.29-.518-1.534-1.337-2.948-2.41-4.16-1-1.108-2.228-1.985-3.6-2.57-2.793-1.17-5.937-1.17-8.73 0-1.372.585-2.6 1.462-3.6 2.57-1.063 1.224-1.87 2.648-2.37 4.19-1.164 3.673-1.164 7.617 0 11.29l-.04-.03zm35.26-23.15h5.94v34.94h-5.94zm20.75 0v5.54h.13c2.467-4.233 6.377-6.35 11.73-6.35 2.02-.056 4.03.266 5.93.95 2.965 1.082 5.183 3.587 5.9 6.66.41 1.692.608 3.43.59 5.17v23h-5.94V31c.087-1.92-.64-3.785-2-5.14-1.47-1.322-3.406-2.003-5.38-1.89-1.608-.037-3.207.238-4.71.81-1.27.5-2.405 1.288-3.32 2.3-.9 1.01-1.58 2.195-2 3.48-.453 1.408-.676 2.88-.66 4.36v19.73h-5.94V19.71h5.67zm48.67 0v5.07h-7.19v21.7c-.017.545.04 1.09.17 1.62.1.386.333.723.66.95.41.254.878.405 1.36.44.754.075 1.512.108 2.27.1h2.72v5.07h-4.53c-1.32.018-2.638-.082-3.94-.3-.96-.146-1.872-.527-2.65-1.11-.716-.602-1.237-1.402-1.5-2.3-.364-1.274-.53-2.596-.49-3.92V24.78h-6.15v-5.07h6.15V9.24h5.94v10.47h7.18zM1.54 33.11l5.5 5.31L24.33 54.6l7.46-7.2c.69-.937.63-2.23-.14-3.1l-6.81-6-7.34-7.12c-.86-.97-.83-2.438.07-3.37L37.34 8.72l-9-8.71L7.04 20.6l-5.49 5.3c-.982.94-1.538 2.242-1.54 3.603-.002 1.36.55 2.663 1.53 3.607z"/>
    <path d="M62.48 42.34l-5.44-5.31L39.7 20.87l-7.46 7.2c-.69.937-.63 2.23.14 3.1l6.81 6 7.34 7.12c.866.967.835 2.44-.07 3.37L26.68 66.73l9 8.71L57 54.85l5.49-5.3c.98-.944 1.532-2.247 1.53-3.607-.002-1.36-.558-2.662-1.54-3.603z"/>
    <ellipse cx="121.65" cy="12.58" rx="3.46" ry="3.35"/>
    <ellipse cx="278.13" cy="12.58" rx="3.46" ry="3.35"/>
  </g>
</svg>
